<svg id="Слой_1" data-name="Слой 1" xmlns="http://www.w3.org/2000/svg" viewBox="0 0 195.32 102.46"><defs><style>.cls-1{fill:#231f20;}.cls-2{fill:#e3c9b7;}.cls-3{fill:#fff;}</style></defs><title>fullLogo</title><path class="cls-1" d="M42.78,106.38a5.12,5.12,0,0,1-.68-2.78,7.32,7.32,0,0,1,.38-2.42,3,3,0,0,1,1.06-1.45A4.2,4.2,0,0,1,45.35,99q.45-.06.85-.09a2.9,2.9,0,0,0,.72-.13.43.43,0,0,0,.24-.39.17.17,0,0,1,.19-.16c.12,0,.19.07.19.2a2.31,2.31,0,0,1-.32,1.08,1.21,1.21,0,0,1-.64.47,8.18,8.18,0,0,1-1.26.24,6.06,6.06,0,0,0-1.48.34,1.93,1.93,0,0,0-.95.95,4.68,4.68,0,0,0-.39,2.14h0a3.51,3.51,0,0,1,.88-1.63A2.19,2.19,0,0,1,45,101.5a2.73,2.73,0,0,1,1.48.4,2.64,2.64,0,0,1,1,1.07,3.13,3.13,0,0,1,.34,1.43A3.24,3.24,0,0,1,47.4,106a2.88,2.88,0,0,1-1,1.1,2.46,2.46,0,0,1-1.33.39A2.5,2.5,0,0,1,42.78,106.38Zm3.4-.09a4.43,4.43,0,0,0,.34-1.89Q46.51,102,45,102a1.18,1.18,0,0,0-1.17.69,4.49,4.49,0,0,0-.32,1.88q0,2.46,1.5,2.46A1.2,1.2,0,0,0,46.17,106.28Z" transform="translate(-7.15 -7.55)"/><path class="cls-1" d="M48.41,109.67a1,1,0,0,1-.42-.82q0-.56.31-.72a1.19,1.19,0,0,1,.49-.16.64.64,0,0,1,.35.09c.09.06.14.11.14.16s0,.06-.1.12a.49.49,0,0,0-.1.35.66.66,0,0,0,.16.44.54.54,0,0,0,.44.19q.79,0,1.53-1.61a1.05,1.05,0,0,0,0-.26,1,1,0,0,0-.06-.31q-.25-.56-.84-2.08-.51-1.36-.84-2.07a2.19,2.19,0,0,0-.4-.67,1,1,0,0,0-.55-.23l-.14,0c-.07,0-.11,0-.12-.06a.42.42,0,0,1,0-.17c0-.1,0-.16.08-.19a.53.53,0,0,1,.2,0h.16a2.15,2.15,0,0,1,1.2.22,1.88,1.88,0,0,1,.72.89q.27.64.49,1.21.5,1.35.81,2h0l1.22-3.27a1.27,1.27,0,0,0,.06-.3.19.19,0,0,0-.12-.19,1.21,1.21,0,0,0-.41,0h-.07a.22.22,0,0,1-.14,0,.29.29,0,0,1-.06-.19.35.35,0,0,1,0-.17.14.14,0,0,1,.13-.08q.71,0,1.21,0l.77,0h.26a.15.15,0,0,1,.14.08.32.32,0,0,1,0,.17c0,.1,0,.16-.06.19a.25.25,0,0,1-.15,0,1.39,1.39,0,0,0-.71.15,1.15,1.15,0,0,0-.42.59l-.92,2.28-.95,2.32a7.84,7.84,0,0,1-1,1.83,1.78,1.78,0,0,1-1.43.76A1.46,1.46,0,0,1,48.41,109.67Z" transform="translate(-7.15 -7.55)"/><path class="cls-1" d="M60.19,107.2a1.56,1.56,0,0,1-.5-.51,6.24,6.24,0,0,1-.4-.8,8.16,8.16,0,0,0-.37-.74,1.45,1.45,0,0,0-.42-.46,1.09,1.09,0,0,0-.65-.19h-.39V106a3.14,3.14,0,0,0,0,.47.42.42,0,0,0,.16.26.73.73,0,0,0,.46.11h.07a.25.25,0,0,1,.15,0,.27.27,0,0,1,.06.19.31.31,0,0,1,0,.17.17.17,0,0,1-.15.07q-.72,0-1.31,0t-1.21,0a.16.16,0,0,1-.14-.07.31.31,0,0,1,0-.17c0-.11,0-.17.07-.19a.47.47,0,0,1,.21,0,.59.59,0,0,0,.4-.08.32.32,0,0,0,.12-.22q0-.12,0-.55v-3.08s0-.17,0-.36a.52.52,0,0,0-.13-.39.6.6,0,0,0-.41-.09H55.7a.22.22,0,0,1-.14,0,.29.29,0,0,1-.06-.19.3.3,0,0,1,0-.17.16.16,0,0,1,.14-.08q.71,0,1.21,0t1.31,0a.17.17,0,0,1,.15.08.31.31,0,0,1,0,.17c0,.11,0,.17-.07.19a.51.51,0,0,1-.22,0,.73.73,0,0,0-.46.11.42.42,0,0,0-.16.26,3.14,3.14,0,0,0,0,.47v1.2H58q.54,0,.91-.72a3.19,3.19,0,0,0,.14-.3l.11-.24a6.18,6.18,0,0,1,.32-.69,1.57,1.57,0,0,1,.41-.46,1.12,1.12,0,0,1,.63-.22,1,1,0,0,1,.74.28.88.88,0,0,1,.28.64.64.64,0,0,1-.12.39.94.94,0,0,1-.27.26.55.55,0,0,1-.27.09h-.07s0,0,0-.06a.76.76,0,0,0-.12-.44.39.39,0,0,0-.34-.18.61.61,0,0,0-.5.22,1.87,1.87,0,0,0-.28.47l-.15.34a1.63,1.63,0,0,1-.66.72v0a1.52,1.52,0,0,1,.85.28,2,2,0,0,1,.54.6,8.09,8.09,0,0,1,.42.87,4.14,4.14,0,0,0,.33.68.42.42,0,0,0,.36.22.37.37,0,0,0,.25-.07,1,1,0,0,0,.18-.22q.09-.14.16-.14h0a.17.17,0,0,1,.15.07.21.21,0,0,1,0,.17.71.71,0,0,1-.39.51,1.58,1.58,0,0,1-1.47,0Z" transform="translate(-7.15 -7.55)"/><path class="cls-1" d="M63.87,107a2.57,2.57,0,0,1-1-1.08,3.4,3.4,0,0,1-.34-1.52,3.09,3.09,0,0,1,.34-1.41,2.84,2.84,0,0,1,1-1.1,2.57,2.57,0,0,1,1.46-.42,2.39,2.39,0,0,1,1.71.57,2.31,2.31,0,0,1,.69,1.53.63.63,0,0,1-.22.56,1.17,1.17,0,0,1-.65.15h-3a3.13,3.13,0,0,0,.48,1.84,2,2,0,0,0,2.4.45,2.32,2.32,0,0,0,.71-.78.18.18,0,0,1,.12-.06.23.23,0,0,1,.15,0,.25.25,0,0,1,.12.22.2.2,0,0,1,0,.11,2.79,2.79,0,0,1-1,1,2.62,2.62,0,0,1-1.34.34A3,3,0,0,1,63.87,107Zm2-3.22q.64,0,.67-.52a1.53,1.53,0,0,0-.31-1,1.06,1.06,0,0,0-.88-.4,1.29,1.29,0,0,0-1,.5,2.36,2.36,0,0,0-.46,1.39Z" transform="translate(-7.15 -7.55)"/><path class="cls-1" d="M70,107.26a.28.28,0,0,1-.06-.17c0-.11,0-.17.07-.19a.52.52,0,0,1,.22,0,.74.74,0,0,0,.46-.11.43.43,0,0,0,.16-.26,3.22,3.22,0,0,0,0-.47v-4H70.3a.94.94,0,0,0-.59.16.86.86,0,0,0-.29.45,6.78,6.78,0,0,0-.17.89.19.19,0,0,1-.12.15.61.61,0,0,1-.25,0,.31.31,0,0,1-.19-.06.19.19,0,0,1-.09-.16l0-1.58q0-.29.3-.29h4.95q.3,0,.3.29l0,1.58a.19.19,0,0,1-.09.16.32.32,0,0,1-.19.06.61.61,0,0,1-.25,0,.19.19,0,0,1-.12-.15,5.83,5.83,0,0,0-.19-.88.9.9,0,0,0-.31-.46,1,1,0,0,0-.6-.16H72v4s0,.17,0,.36a.51.51,0,0,0,.13.39.59.59,0,0,0,.41.09h.07a.22.22,0,0,1,.14,0,.3.3,0,0,1,.06.19.31.31,0,0,1,0,.17.16.16,0,0,1-.14.07q-.71,0-1.21,0t-1.3,0A.17.17,0,0,1,70,107.26Z" transform="translate(-7.15 -7.55)"/><path class="cls-1" d="M75,107.26a.31.31,0,0,1,0-.17c0-.11,0-.17.07-.19a.52.52,0,0,1,.22,0,.74.74,0,0,0,.46-.11.4.4,0,0,0,.16-.26,4.2,4.2,0,0,0,0-.48v-3.4a.49.49,0,0,0-.16-.4.73.73,0,0,0-.48-.13h-.08a.24.24,0,0,1-.16,0,.29.29,0,0,1-.06-.19.3.3,0,0,1,0-.17.17.17,0,0,1,.15-.08q.71,0,1.3,0t1.2,0a.17.17,0,0,1,.15.08.31.31,0,0,1,0,.17c0,.11,0,.17-.07.19a.47.47,0,0,1-.21,0,.6.6,0,0,0-.4.08.32.32,0,0,0-.12.22q0,.12,0,.55v1.13h2.66v-1.13s0-.17,0-.36a.52.52,0,0,0-.13-.39.6.6,0,0,0-.41-.09h-.07a.22.22,0,0,1-.14,0,.29.29,0,0,1-.06-.19.31.31,0,0,1,0-.17.16.16,0,0,1,.14-.08q.71,0,1.21,0t1.3,0a.17.17,0,0,1,.15.08.3.3,0,0,1,0,.17c0,.11,0,.17-.07.19a.51.51,0,0,1-.22,0,.73.73,0,0,0-.46.11.42.42,0,0,0-.16.26,3.22,3.22,0,0,0,0,.47V106a3.22,3.22,0,0,0,0,.47.43.43,0,0,0,.16.26.74.74,0,0,0,.46.11h.08a.25.25,0,0,1,.15,0,.27.27,0,0,1,.06.19.31.31,0,0,1,0,.17.17.17,0,0,1-.15.07q-.72,0-1.3,0t-1.21,0a.16.16,0,0,1-.14-.07.31.31,0,0,1,0-.17c0-.11,0-.17.07-.19a.47.47,0,0,1,.21,0,.6.6,0,0,0,.4-.08.32.32,0,0,0,.12-.22c0-.08,0-.27,0-.55v-1.46H77.05V106s0,.17,0,.36a.51.51,0,0,0,.13.39.59.59,0,0,0,.41.09h.06a.25.25,0,0,1,.15,0,.27.27,0,0,1,.06.19.31.31,0,0,1,0,.17.17.17,0,0,1-.15.07q-.71,0-1.2,0t-1.3,0A.17.17,0,0,1,75,107.26Z" transform="translate(-7.15 -7.55)"/><path class="cls-1" d="M83.11,107a1.52,1.52,0,0,1,.06-2.24,2.79,2.79,0,0,1,1.25-.51,18,18,0,0,1,1.87-.18v-1a1.29,1.29,0,0,0-.31-.93,1.31,1.31,0,0,0-1-.32,1,1,0,0,0-.67.24.78.78,0,0,0-.29.64.56.56,0,0,0,.09.33,1.15,1.15,0,0,0,.2.22l.11.1s-.05.11-.16.19a.61.61,0,0,1-.38.12.72.72,0,0,1-.59-.27,1,1,0,0,1-.22-.65,1,1,0,0,1,.58-1,2.93,2.93,0,0,1,1.4-.31,3.2,3.2,0,0,1,1.66.39,1.53,1.53,0,0,1,.64,1.43v2.9a1,1,0,0,0,.16.5A.53.53,0,0,0,88,107a.16.16,0,0,1,.19.2q0,.15-.23.22a1.59,1.59,0,0,1-.45.07,1.34,1.34,0,0,1-.84-.27,1,1,0,0,1-.41-.74,1.74,1.74,0,0,1-.8.75,2.65,2.65,0,0,1-1.17.26A1.72,1.72,0,0,1,83.11,107Zm2.39-.46a1.56,1.56,0,0,0,.57-.58,1.6,1.6,0,0,0,.21-.82v-.71a4.47,4.47,0,0,0-1.84.42,1.13,1.13,0,0,0-.54,1q0,.85.81.85A1.53,1.53,0,0,0,85.5,106.56Z" transform="translate(-7.15 -7.55)"/><path class="cls-1" d="M89.1,107.27a1.12,1.12,0,0,1-.39-.29.53.53,0,0,1-.14-.32.18.18,0,0,1,.2-.2q.09,0,.2.16a1,1,0,0,0,.17.2.33.33,0,0,0,.22.07.55.55,0,0,0,.43-.21,5.19,5.19,0,0,0,.46-.67l.14-.22.11-.18A2.47,2.47,0,0,1,91,105a2,2,0,0,1,.71-.33v0a2.62,2.62,0,0,1-.75-.14,2,2,0,0,1-.65-.35,1.32,1.32,0,0,1,.16-2.12,3.19,3.19,0,0,1,1.66-.37h1.76q.57,0,1.3,0a.16.16,0,0,1,.14.08.31.31,0,0,1,0,.17c0,.11,0,.17-.07.19a.51.51,0,0,1-.22,0,.73.73,0,0,0-.46.11.4.4,0,0,0-.16.26,4.35,4.35,0,0,0,0,.47V106a4.36,4.36,0,0,0,0,.47.4.4,0,0,0,.16.26.74.74,0,0,0,.46.11h.07a.25.25,0,0,1,.16,0,.3.3,0,0,1,.06.19.31.31,0,0,1,0,.17.16.16,0,0,1-.14.07q-.72,0-1.3,0t-1.21,0a.17.17,0,0,1-.15-.07.31.31,0,0,1,0-.17c0-.11,0-.17.07-.19a.47.47,0,0,1,.21,0q.37,0,.46-.13a.74.74,0,0,0,.09-.39v-1.6h-.29a1.2,1.2,0,0,0-.87.31,4.13,4.13,0,0,0-.67.92,6.56,6.56,0,0,1-.49.76,1.84,1.84,0,0,1-.55.47,1.66,1.66,0,0,1-.83.19A1.29,1.29,0,0,1,89.1,107.27Zm4.25-2.87v-1.91a.32.32,0,0,0-.21-.34,2.13,2.13,0,0,0-.67-.07,1.5,1.5,0,0,0-1,.3,1.07,1.07,0,0,0-.36.87,1,1,0,0,0,.5.91,2.37,2.37,0,0,0,1.17.24Z" transform="translate(-7.15 -7.55)"/><path class="cls-1" d="M101,107.26a.28.28,0,0,1-.06-.17c0-.11,0-.17.07-.19a.56.56,0,0,1,.22,0,.74.74,0,0,0,.46-.11.43.43,0,0,0,.16-.27,3.22,3.22,0,0,0,0-.47l0-3.08a1.48,1.48,0,0,0-.06-.5.39.39,0,0,0-.19-.22,2.09,2.09,0,0,0-.42-.12l-.14,0A.16.16,0,0,1,101,102a.38.38,0,0,1,0-.16.19.19,0,0,1,.07-.18.46.46,0,0,1,.22,0,6.05,6.05,0,0,1,1.1.08,1.8,1.8,0,0,1,.77.34,2.35,2.35,0,0,1,.62.77l1.48,2.81h0l1.63-4h.71q.56,0,1.3,0a.16.16,0,0,1,.14.08.3.3,0,0,1,0,.17c0,.11,0,.17-.07.19a.51.51,0,0,1-.22,0,.73.73,0,0,0-.46.11.4.4,0,0,0-.16.26,4.23,4.23,0,0,0,0,.47V106a4.23,4.23,0,0,0,0,.47.4.4,0,0,0,.16.26.74.74,0,0,0,.46.11h.08a.25.25,0,0,1,.16,0,.3.3,0,0,1,.06.19.31.31,0,0,1,0,.17.16.16,0,0,1-.14.07q-.72,0-1.3,0t-1.21,0a.17.17,0,0,1-.14-.07.28.28,0,0,1-.06-.17c0-.11,0-.17.07-.19a.47.47,0,0,1,.21,0,.62.62,0,0,0,.4-.08.31.31,0,0,0,.13-.22q0-.12,0-.55v-3.3h0l-1.88,4.59h-.32l-2.34-4.59h0V106a4.2,4.2,0,0,0,0,.47.4.4,0,0,0,.16.26.74.74,0,0,0,.46.11h.07a.28.28,0,0,1,.16,0,.27.27,0,0,1,.06.19.28.28,0,0,1-.06.17.17.17,0,0,1-.14.07h-.32l-.5,0H102l-.51,0h-.32A.17.17,0,0,1,101,107.26Z" transform="translate(-7.15 -7.55)"/><path class="cls-1" d="M110.3,107a1.52,1.52,0,0,1,.06-2.24,2.79,2.79,0,0,1,1.25-.51,18,18,0,0,1,1.87-.18v-1a1.29,1.29,0,0,0-.31-.93,1.31,1.31,0,0,0-1-.32,1,1,0,0,0-.67.24.78.78,0,0,0-.29.64.55.55,0,0,0,.09.33,1.13,1.13,0,0,0,.2.22l.11.1s-.05.11-.16.19a.61.61,0,0,1-.38.12.72.72,0,0,1-.59-.27,1,1,0,0,1-.22-.65,1,1,0,0,1,.58-1,2.93,2.93,0,0,1,1.4-.31,3.2,3.2,0,0,1,1.66.39,1.53,1.53,0,0,1,.64,1.43v2.9a1,1,0,0,0,.16.5.53.53,0,0,0,.49.24.22.22,0,0,1,.14,0,.22.22,0,0,1,0,.16c0,.1-.08.17-.23.22a1.6,1.6,0,0,1-.46.07,1.34,1.34,0,0,1-.83-.27,1,1,0,0,1-.41-.74,1.74,1.74,0,0,1-.8.75,2.65,2.65,0,0,1-1.17.26A1.72,1.72,0,0,1,110.3,107Zm2.39-.46a1.57,1.57,0,0,0,.57-.58,1.6,1.6,0,0,0,.21-.82v-.71a4.47,4.47,0,0,0-1.84.42,1.13,1.13,0,0,0-.54,1q0,.85.81.85A1.53,1.53,0,0,0,112.69,106.56Z" transform="translate(-7.15 -7.55)"/><path class="cls-1" d="M116.84,106.64a3.32,3.32,0,0,1-.31-3.68,2.87,2.87,0,0,1,1.05-1,3.08,3.08,0,0,1,1.46-.41,3,3,0,0,1,1.38.3,1,1,0,0,1,.58,1,1.07,1.07,0,0,1-.23.68.74.74,0,0,1-.62.29.66.66,0,0,1-.41-.12q-.17-.12-.17-.21l.11-.11a1.21,1.21,0,0,0,.21-.24.59.59,0,0,0,.09-.33.67.67,0,0,0-.28-.59,1.14,1.14,0,0,0-.68-.2,1.31,1.31,0,0,0-1.3.7,4,4,0,0,0-.34,1.76,2.92,2.92,0,0,0,.47,1.72,1.47,1.47,0,0,0,1.26.67,1.73,1.73,0,0,0,.92-.23,2.25,2.25,0,0,0,.69-.7.13.13,0,0,1,.12-.06.31.31,0,0,1,.14,0,.21.21,0,0,1,.1.09.24.24,0,0,1,0,.12.21.21,0,0,1,0,.1,3.07,3.07,0,0,1-1,.93,2.5,2.5,0,0,1-1.23.34A2.54,2.54,0,0,1,116.84,106.64Z" transform="translate(-7.15 -7.55)"/><path class="cls-1" d="M123.21,107.26a.28.28,0,0,1-.06-.17c0-.11,0-.17.07-.19a.52.52,0,0,1,.22,0,.74.74,0,0,0,.46-.11.43.43,0,0,0,.16-.26,3.22,3.22,0,0,0,0-.47v-4h-.55a.94.94,0,0,0-.59.16.86.86,0,0,0-.29.45,6.78,6.78,0,0,0-.17.89.19.19,0,0,1-.12.15.61.61,0,0,1-.25,0,.31.31,0,0,1-.19-.06.19.19,0,0,1-.09-.16l0-1.58q0-.29.3-.29h4.95q.3,0,.3.29l0,1.58a.19.19,0,0,1-.09.16.32.32,0,0,1-.19.06.61.61,0,0,1-.25,0,.19.19,0,0,1-.12-.15,5.83,5.83,0,0,0-.19-.88.9.9,0,0,0-.31-.46,1,1,0,0,0-.6-.16h-.5v4s0,.17,0,.36a.51.51,0,0,0,.13.39.59.59,0,0,0,.41.09h.07a.22.22,0,0,1,.14,0,.3.3,0,0,1,.06.19.31.31,0,0,1,0,.17.16.16,0,0,1-.14.07q-.71,0-1.21,0t-1.3,0A.17.17,0,0,1,123.21,107.26Z" transform="translate(-7.15 -7.55)"/><path class="cls-1" d="M129.62,107a2.57,2.57,0,0,1-1-1.08,3.4,3.4,0,0,1-.34-1.52,3.09,3.09,0,0,1,.34-1.41,2.84,2.84,0,0,1,1-1.1,2.57,2.57,0,0,1,1.46-.42,2.39,2.39,0,0,1,1.71.57,2.31,2.31,0,0,1,.69,1.53.63.63,0,0,1-.22.56,1.17,1.17,0,0,1-.65.15h-3a3.13,3.13,0,0,0,.48,1.84,2,2,0,0,0,2.4.45,2.32,2.32,0,0,0,.71-.78.18.18,0,0,1,.12-.06.23.23,0,0,1,.15,0,.25.25,0,0,1,.12.22.2.2,0,0,1,0,.11,2.79,2.79,0,0,1-1,1,2.62,2.62,0,0,1-1.34.34A3,3,0,0,1,129.62,107Zm2-3.22q.64,0,.67-.52a1.53,1.53,0,0,0-.31-1,1.06,1.06,0,0,0-.88-.4,1.29,1.29,0,0,0-1,.5,2.36,2.36,0,0,0-.46,1.39Z" transform="translate(-7.15 -7.55)"/><path class="cls-1" d="M134.38,109.82a.28.28,0,0,1-.06-.17c0-.11,0-.17.07-.19a.51.51,0,0,1,.22,0,.71.71,0,0,0,.45-.11.46.46,0,0,0,.17-.27,2.59,2.59,0,0,0,0-.46v-5.41a4.36,4.36,0,0,0,0-.47.4.4,0,0,0-.16-.26.74.74,0,0,0-.46-.11.46.46,0,0,1-.22,0s-.07-.1-.07-.21a.24.24,0,0,1,0-.14.21.21,0,0,1,.15-.08,6.66,6.66,0,0,0,1.33-.32l.29-.07h0c.13,0,.2.08.2.24v.6h0a3.08,3.08,0,0,1,.85-.55,2.25,2.25,0,0,1,.92-.22,2.46,2.46,0,0,1,1.34.37,2.55,2.55,0,0,1,.93,1.05,3.42,3.42,0,0,1,.34,1.54,3,3,0,0,1-.4,1.55,2.83,2.83,0,0,1-1.06,1.05,2.8,2.8,0,0,1-1.4.37,3,3,0,0,1-.86-.11,2.74,2.74,0,0,1-.64-.28h0v1.51a2.58,2.58,0,0,0,0,.46.46.46,0,0,0,.17.27.71.71,0,0,0,.45.11h.07a.25.25,0,0,1,.15,0,.27.27,0,0,1,.06.19.31.31,0,0,1,0,.17.17.17,0,0,1-.15.07q-.72,0-1.31,0t-1.3,0A.17.17,0,0,1,134.38,109.82Zm4.74-3.57a3.71,3.71,0,0,0,.41-1.75,3,3,0,0,0-.45-1.68,1.48,1.48,0,0,0-1.33-.7,1.52,1.52,0,0,0-.74.17,2.57,2.57,0,0,0-.6.48v3.34a1.44,1.44,0,0,0,.53.64,1.55,1.55,0,0,0,.92.27A1.35,1.35,0,0,0,139.12,106.25Z" transform="translate(-7.15 -7.55)"/><path class="cls-1" d="M142.55,106.64a3.32,3.32,0,0,1-.31-3.68,2.86,2.86,0,0,1,1.05-1,3.07,3.07,0,0,1,1.46-.41,3,3,0,0,1,1.38.3,1,1,0,0,1,.58,1,1.07,1.07,0,0,1-.23.68.75.75,0,0,1-.62.29.66.66,0,0,1-.4-.12q-.17-.12-.17-.21l.11-.11a1.21,1.21,0,0,0,.21-.24.59.59,0,0,0,.09-.33.67.67,0,0,0-.28-.59,1.14,1.14,0,0,0-.68-.2,1.31,1.31,0,0,0-1.3.7,4,4,0,0,0-.34,1.76,2.92,2.92,0,0,0,.47,1.72,1.47,1.47,0,0,0,1.26.67,1.73,1.73,0,0,0,.92-.23,2.24,2.24,0,0,0,.69-.7.13.13,0,0,1,.12-.06.31.31,0,0,1,.14,0,.21.21,0,0,1,.1.09.24.24,0,0,1,0,.12.22.22,0,0,1,0,.1,3.08,3.08,0,0,1-1,.93,2.5,2.5,0,0,1-1.23.34A2.54,2.54,0,0,1,142.55,106.64Z" transform="translate(-7.15 -7.55)"/><path class="cls-1" d="M152.37,107.2a1.56,1.56,0,0,1-.5-.51,6.24,6.24,0,0,1-.4-.8,8.18,8.18,0,0,0-.37-.74,1.46,1.46,0,0,0-.42-.46,1.09,1.09,0,0,0-.65-.19h-.39V106a3.16,3.16,0,0,0,0,.47.42.42,0,0,0,.16.26.74.74,0,0,0,.46.11h.07a.25.25,0,0,1,.15,0,.27.27,0,0,1,.06.19.31.31,0,0,1,0,.17.17.17,0,0,1-.15.07q-.72,0-1.31,0t-1.21,0a.16.16,0,0,1-.14-.07.31.31,0,0,1,0-.17c0-.11,0-.17.07-.19a.47.47,0,0,1,.21,0,.59.59,0,0,0,.4-.08.32.32,0,0,0,.12-.22q0-.12,0-.55v-3.08s0-.17,0-.36a.52.52,0,0,0-.13-.39.6.6,0,0,0-.41-.09h-.07a.22.22,0,0,1-.14,0,.29.29,0,0,1-.06-.19.31.31,0,0,1,0-.17.16.16,0,0,1,.14-.08q.71,0,1.21,0t1.31,0a.17.17,0,0,1,.15.08.31.31,0,0,1,0,.17c0,.11,0,.17-.07.19a.51.51,0,0,1-.22,0,.73.73,0,0,0-.46.11.42.42,0,0,0-.16.26,3.15,3.15,0,0,0,0,.47v1.2h.57q.54,0,.91-.72a3.19,3.19,0,0,0,.14-.3l.11-.24a6.1,6.1,0,0,1,.32-.69,1.58,1.58,0,0,1,.41-.46,1.12,1.12,0,0,1,.63-.22,1,1,0,0,1,.74.28.88.88,0,0,1,.28.64.64.64,0,0,1-.12.39.94.94,0,0,1-.27.26.55.55,0,0,1-.27.09H153s0,0,0-.06a.76.76,0,0,0-.12-.44.39.39,0,0,0-.34-.18.61.61,0,0,0-.5.22,1.87,1.87,0,0,0-.28.47l-.15.34a1.62,1.62,0,0,1-.66.72v0a1.52,1.52,0,0,1,.85.28,2,2,0,0,1,.54.6,8.09,8.09,0,0,1,.42.87,4.14,4.14,0,0,0,.33.68.42.42,0,0,0,.36.22.37.37,0,0,0,.25-.07,1,1,0,0,0,.18-.22q.09-.14.16-.14h0a.17.17,0,0,1,.15.07.21.21,0,0,1,0,.17.71.71,0,0,1-.39.51,1.58,1.58,0,0,1-1.47,0Z" transform="translate(-7.15 -7.55)"/><path class="cls-1" d="M155.23,107a1.52,1.52,0,0,1,.06-2.24,2.79,2.79,0,0,1,1.25-.51,18,18,0,0,1,1.87-.18v-1a1.29,1.29,0,0,0-.31-.93,1.31,1.31,0,0,0-1-.32,1,1,0,0,0-.67.24.78.78,0,0,0-.29.64.56.56,0,0,0,.09.33,1.16,1.16,0,0,0,.2.22l.11.1s-.05.11-.16.19a.61.61,0,0,1-.38.12.72.72,0,0,1-.59-.27,1,1,0,0,1-.22-.65,1,1,0,0,1,.58-1,2.93,2.93,0,0,1,1.4-.31,3.2,3.2,0,0,1,1.66.39,1.53,1.53,0,0,1,.64,1.43v2.9a1,1,0,0,0,.16.5.53.53,0,0,0,.49.24.22.22,0,0,1,.14,0,.22.22,0,0,1,0,.16q0,.15-.23.22a1.59,1.59,0,0,1-.45.07,1.34,1.34,0,0,1-.84-.27,1,1,0,0,1-.41-.74,1.74,1.74,0,0,1-.8.75,2.65,2.65,0,0,1-1.17.26A1.72,1.72,0,0,1,155.23,107Zm2.39-.46a1.57,1.57,0,0,0,.57-.58,1.6,1.6,0,0,0,.21-.82v-.71a4.47,4.47,0,0,0-1.84.42,1.13,1.13,0,0,0-.54,1q0,.85.81.85A1.53,1.53,0,0,0,157.62,106.56Z" transform="translate(-7.15 -7.55)"/><path class="cls-1" d="M161.21,107.27a1.12,1.12,0,0,1-.39-.29.53.53,0,0,1-.14-.32.18.18,0,0,1,.2-.2c.06,0,.12.05.2.16a1,1,0,0,0,.17.2.33.33,0,0,0,.22.07.55.55,0,0,0,.43-.21,5.2,5.2,0,0,0,.45-.67l.14-.22.11-.18a2.46,2.46,0,0,1,.55-.62,2,2,0,0,1,.71-.33v0a2.62,2.62,0,0,1-.75-.14,2,2,0,0,1-.65-.35,1.32,1.32,0,0,1,.16-2.12,3.2,3.2,0,0,1,1.66-.37H166q.57,0,1.3,0a.16.16,0,0,1,.14.08.31.31,0,0,1,0,.17c0,.11,0,.17-.07.19a.51.51,0,0,1-.22,0,.73.73,0,0,0-.46.11.39.39,0,0,0-.16.26,4.2,4.2,0,0,0,0,.47V106a4.2,4.2,0,0,0,0,.47.4.4,0,0,0,.16.26.73.73,0,0,0,.46.11h.07a.25.25,0,0,1,.16,0,.3.3,0,0,1,.06.19.31.31,0,0,1,0,.17.16.16,0,0,1-.14.07q-.72,0-1.3,0t-1.21,0a.17.17,0,0,1-.15-.07.31.31,0,0,1,0-.17c0-.11,0-.17.07-.19a.47.47,0,0,1,.21,0q.37,0,.46-.13a.74.74,0,0,0,.09-.39v-1.6h-.29a1.2,1.2,0,0,0-.87.31,4.14,4.14,0,0,0-.67.92,6.5,6.5,0,0,1-.49.76,1.85,1.85,0,0,1-.55.47,1.66,1.66,0,0,1-.84.19A1.3,1.3,0,0,1,161.21,107.27Zm4.25-2.87v-1.91a.32.32,0,0,0-.21-.34,2.12,2.12,0,0,0-.67-.07,1.5,1.5,0,0,0-1,.3,1.07,1.07,0,0,0-.36.87,1,1,0,0,0,.5.91,2.37,2.37,0,0,0,1.17.24Z" transform="translate(-7.15 -7.55)"/><path class="cls-1" d="M16.83,92.26l-6-13.49h-.08l.05,10.52a7.07,7.07,0,0,0,.11,1.1,1.12,1.12,0,0,0,.44.66,1.84,1.84,0,0,0,1.13.28h.16a.63.63,0,0,1,.38.09.67.67,0,0,1,.15.46.7.7,0,0,1-.12.41.41.41,0,0,1-.36.17l-.66,0q-1.22-.05-1.75-.05-.9,0-2.62.08a.41.41,0,0,1-.36-.17.7.7,0,0,1-.12-.41q0-.4.16-.48a1.09,1.09,0,0,1,.5-.08A1.84,1.84,0,0,0,9,91.05a1.12,1.12,0,0,0,.44-.66,7.07,7.07,0,0,0,.11-1.1l.05-10.52a3.14,3.14,0,0,0-.19-1.23,1.14,1.14,0,0,0-.54-.58,4.47,4.47,0,0,0-1-.3l-.32-.07a.37.37,0,0,1-.28-.16A.83.83,0,0,1,7.15,76a.46.46,0,0,1,.17-.42,1.07,1.07,0,0,1,.54-.11,13.66,13.66,0,0,1,2.57.2,4,4,0,0,1,1.76.81,4.52,4.52,0,0,1,1.26,1.8L18,88.55h.08l5.22-12.88h1.51q1.46,0,3.15-.08a.41.41,0,0,1,.36.17.7.7,0,0,1,.12.41q0,.4-.17.48a1.1,1.1,0,0,1-.49.08,1.9,1.9,0,0,0-1.14.28,1.17,1.17,0,0,0-.46.69,6.12,6.12,0,0,0-.12,1.07V89.29a6.11,6.11,0,0,0,.12,1.07,1.17,1.17,0,0,0,.46.69,1.9,1.9,0,0,0,1.14.28H28a.58.58,0,0,1,.36.09.67.67,0,0,1,.15.46.7.7,0,0,1-.12.41.41.41,0,0,1-.36.17q-1.7-.08-3.18-.08t-3.26.08a.41.41,0,0,1-.36-.17.7.7,0,0,1-.12-.41q0-.4.16-.48a1.09,1.09,0,0,1,.5-.08,1.9,1.9,0,0,0,1.14-.28,1.17,1.17,0,0,0,.46-.69,6.2,6.2,0,0,0,.12-1.07V78.77h-.08L17.92,92.26c-.07.18-.25.27-.53.27A.6.6,0,0,1,16.83,92.26Z" transform="translate(-7.15 -7.55)"/><path class="cls-1" d="M33.32,91.81A3.23,3.23,0,0,1,33.45,87,6,6,0,0,1,36.1,86a38.62,38.62,0,0,1,4-.38V83.48a2.74,2.74,0,0,0-.65-2,2.78,2.78,0,0,0-2.08-.68,2.18,2.18,0,0,0-1.43.5,1.66,1.66,0,0,0-.61,1.35,1.18,1.18,0,0,0,.2.7,2.41,2.41,0,0,0,.42.46c.15.12.23.19.23.21s-.11.24-.33.41a1.3,1.3,0,0,1-.81.25,1.52,1.52,0,0,1-1.26-.58,2.15,2.15,0,0,1-.46-1.38,2.17,2.17,0,0,1,1.23-2,6.22,6.22,0,0,1,3-.66,6.79,6.79,0,0,1,3.54.82,3.26,3.26,0,0,1,1.37,3v6.18a2.15,2.15,0,0,0,.34,1.06,1.13,1.13,0,0,0,1,.5.47.47,0,0,1,.3.08.46.46,0,0,1,.09.34q0,.32-.49.46a3.39,3.39,0,0,1-1,.15A2.86,2.86,0,0,1,41,92.13a2.17,2.17,0,0,1-.87-1.56,3.7,3.7,0,0,1-1.71,1.59,5.62,5.62,0,0,1-2.48.56A3.65,3.65,0,0,1,33.32,91.81Zm5.09-1a3.33,3.33,0,0,0,1.22-1.23,3.41,3.41,0,0,0,.45-1.74V86.35a9.51,9.51,0,0,0-3.92.9A2.4,2.4,0,0,0,35,89.47q0,1.8,1.72,1.8A3.25,3.25,0,0,0,38.41,90.83Z" transform="translate(-7.15 -7.55)"/><path class="cls-1" d="M48.23,92.31a.6.6,0,0,1-.12-.37c0-.23.07-.37.16-.41a1.19,1.19,0,0,1,.48-.07,1.56,1.56,0,0,0,1-.24.85.85,0,0,0,.33-.56,9,9,0,0,0,0-1V83.59a9.05,9.05,0,0,0,0-1,.85.85,0,0,0-.33-.56,1.57,1.57,0,0,0-1-.24,1,1,0,0,1-.48-.09q-.16-.09-.16-.44a.51.51,0,0,1,.11-.3.44.44,0,0,1,.32-.17,14.13,14.13,0,0,0,2.84-.69c.3-.09.5-.14.61-.16h.08q.42,0,.42.5v1.64h.08a9,9,0,0,1,1.88-1.47,3.56,3.56,0,0,1,1.72-.54,1.69,1.69,0,0,1,1.39.65,2.34,2.34,0,0,1,.52,1.5,2.11,2.11,0,0,1-.45,1.33,1.49,1.49,0,0,1-1.25.58,1.29,1.29,0,0,1-.65-.16c-.19-.11-.29-.19-.3-.27a3.08,3.08,0,0,1,.27-.33,1,1,0,0,0,.24-.65,1.14,1.14,0,0,0-.25-.77.85.85,0,0,0-.68-.29,2.29,2.29,0,0,0-1.14.44,8,8,0,0,0-1.35,1.1v6.47a6.74,6.74,0,0,0,.05,1,.9.9,0,0,0,.34.56,1.56,1.56,0,0,0,1,.24h.16a.53.53,0,0,1,.32.08.57.57,0,0,1,.13.4.65.65,0,0,1-.11.37.36.36,0,0,1-.32.16q-1.54-.08-2.78-.08t-2.76.08A.37.37,0,0,1,48.23,92.31Z" transform="translate(-7.15 -7.55)"/><path class="cls-1" d="M62.15,92.31a.6.6,0,0,1-.12-.37c0-.23.07-.37.16-.41a1.19,1.19,0,0,1,.48-.07,1.56,1.56,0,0,0,1-.24.85.85,0,0,0,.33-.56,9,9,0,0,0,0-1V83.59a9.05,9.05,0,0,0,0-1,.85.85,0,0,0-.33-.56,1.57,1.57,0,0,0-1-.24,1,1,0,0,1-.48-.09Q62,81.6,62,81.26a.51.51,0,0,1,.11-.3.44.44,0,0,1,.32-.17,13.56,13.56,0,0,0,2.86-.69,2.85,2.85,0,0,1,.61-.16H66q.42,0,.42.5v9.23a6.74,6.74,0,0,0,.05,1,.9.9,0,0,0,.34.56,1.56,1.56,0,0,0,1,.24H68a.53.53,0,0,1,.32.08.57.57,0,0,1,.13.4.65.65,0,0,1-.11.37.36.36,0,0,1-.32.16q-1.54-.08-2.78-.08t-2.76.08A.37.37,0,0,1,62.15,92.31Zm1.68-15.79a1.5,1.5,0,0,1-.5-1.15,1.37,1.37,0,0,1,.61-1.09,2.18,2.18,0,0,1,1.38-.48,1.41,1.41,0,0,1,1.09.46,1.68,1.68,0,0,1,.42,1.18,1.41,1.41,0,0,1-.5,1.09,1.8,1.8,0,0,1-1.25.45A1.77,1.77,0,0,1,63.83,76.53Z" transform="translate(-7.15 -7.55)"/><path class="cls-1" d="M73.53,91.81A3.23,3.23,0,0,1,73.67,87,6,6,0,0,1,76.32,86a38.62,38.62,0,0,1,4-.38V83.48a2.74,2.74,0,0,0-.65-2,2.78,2.78,0,0,0-2.08-.68,2.18,2.18,0,0,0-1.43.5,1.66,1.66,0,0,0-.61,1.35,1.18,1.18,0,0,0,.2.7,2.41,2.41,0,0,0,.42.46c.15.12.23.19.23.21s-.11.24-.33.41a1.3,1.3,0,0,1-.81.25A1.52,1.52,0,0,1,74,84.15a2.15,2.15,0,0,1-.46-1.38,2.17,2.17,0,0,1,1.23-2,6.22,6.22,0,0,1,3-.66,6.79,6.79,0,0,1,3.54.82,3.26,3.26,0,0,1,1.37,3v6.18A2.15,2.15,0,0,0,83,91.17a1.13,1.13,0,0,0,1,.5.47.47,0,0,1,.3.08.46.46,0,0,1,.09.34q0,.32-.49.46a3.39,3.39,0,0,1-1,.15,2.86,2.86,0,0,1-1.78-.58,2.17,2.17,0,0,1-.87-1.56,3.7,3.7,0,0,1-1.71,1.59,5.62,5.62,0,0,1-2.48.56A3.65,3.65,0,0,1,73.53,91.81Zm5.09-1a3.33,3.33,0,0,0,1.22-1.23,3.41,3.41,0,0,0,.45-1.74V86.35a9.51,9.51,0,0,0-3.92.9,2.4,2.4,0,0,0-1.14,2.23q0,1.8,1.72,1.8A3.25,3.25,0,0,0,78.62,90.83Z" transform="translate(-7.15 -7.55)"/><path class="cls-1" d="M97.4,92.3a.71.71,0,0,1-.12-.41q0-.4.16-.48a1.09,1.09,0,0,1,.5-.08,1.9,1.9,0,0,0,1.14-.28,1.17,1.17,0,0,0,.46-.69,6.18,6.18,0,0,0,.12-1.07V78.77a6.19,6.19,0,0,0-.12-1.07,1.17,1.17,0,0,0-.46-.69,1.9,1.9,0,0,0-1.14-.28h-.16a.57.57,0,0,1-.37-.09.73.73,0,0,1-.13-.46.71.71,0,0,1,.12-.41.38.38,0,0,1,.33-.17q1.72.08,3.15.08h7.66q.69,0,.69.64l.08,3.71a.44.44,0,0,1-.24.38.91.91,0,0,1-.48.15,1.31,1.31,0,0,1-.57-.12.44.44,0,0,1-.28-.36,10.09,10.09,0,0,0-.44-2,2,2,0,0,0-.74-1,2.62,2.62,0,0,0-1.39-.36H102.3v6.89H107a.42.42,0,0,1,.32.2.77.77,0,0,1,.11.41.66.66,0,0,1-.11.37.36.36,0,0,1-.32.16H102.3v4.53a6.11,6.11,0,0,0,.12,1.07,1.17,1.17,0,0,0,.46.69,1.9,1.9,0,0,0,1.14.28h.16a.58.58,0,0,1,.36.09.67.67,0,0,1,.15.46.71.71,0,0,1-.12.41.41.41,0,0,1-.36.17q-1.7-.08-3.29-.08t-3.18.08A.38.38,0,0,1,97.4,92.3Z" transform="translate(-7.15 -7.55)"/><path class="cls-1" d="M113.1,92.31a.6.6,0,0,1-.12-.37c0-.23.07-.37.15-.41a1.09,1.09,0,0,1,.46-.07,1.56,1.56,0,0,0,1-.24.91.91,0,0,0,.34-.56,6.82,6.82,0,0,0,.05-1V76.72a9,9,0,0,0,0-1,.85.85,0,0,0-.33-.56,1.57,1.57,0,0,0-1-.24,1,1,0,0,1-.48-.09q-.16-.09-.16-.44a.51.51,0,0,1,.11-.3.44.44,0,0,1,.32-.17,13.59,13.59,0,0,0,2.86-.69,2.85,2.85,0,0,1,.61-.16H117q.42,0,.42.5V89.66a6.79,6.79,0,0,0,.05,1,.9.9,0,0,0,.34.56,1.56,1.56,0,0,0,1,.24h.16a.53.53,0,0,1,.32.08.57.57,0,0,1,.13.4.65.65,0,0,1-.11.37.36.36,0,0,1-.32.16q-1.54-.08-2.78-.08t-2.76.08A.36.36,0,0,1,113.1,92.31Z" transform="translate(-7.15 -7.55)"/><path class="cls-1" d="M126.47,91.85a6.07,6.07,0,0,1-2.19-2.28,6.14,6.14,0,0,1-.78-3,6.34,6.34,0,0,1,3.29-5.71,6.06,6.06,0,0,1,6.1.08,6.21,6.21,0,0,1,3,5.29,6.28,6.28,0,0,1-.94,3.46,6.49,6.49,0,0,1-2.37,2.25,5.93,5.93,0,0,1-2.86.78A6,6,0,0,1,126.47,91.85Zm5.85-1.66a8.3,8.3,0,0,0,.83-4,7.2,7.2,0,0,0-.86-3.72A2.84,2.84,0,0,0,129.68,81,2.79,2.79,0,0,0,127,82.56a8.24,8.24,0,0,0-.82,3.95,7.43,7.43,0,0,0,.85,3.75,2.82,2.82,0,0,0,2.62,1.47A2.79,2.79,0,0,0,132.32,90.19Z" transform="translate(-7.15 -7.55)"/><path class="cls-1" d="M141.77,83.25a4.64,4.64,0,0,0-.85-1.42,2,2,0,0,0-1.17-.49l-.29-.05q-.21,0-.27-.13a.91.91,0,0,1-.05-.37c0-.21.06-.34.17-.4a1.17,1.17,0,0,1,.42-.09h.33a4.59,4.59,0,0,1,2.54.46,4,4,0,0,1,1.54,1.9l2.44,6.87h.08q.82-2.54,2.57-9.12h1.27l3.63,9.12h.08q.45-1.38.87-3.14t.5-2l.48-1.88a2.26,2.26,0,0,0,.08-.53.49.49,0,0,0-.24-.49,2.1,2.1,0,0,0-.85-.12h-.16a.47.47,0,0,1-.3-.08.62.62,0,0,1-.12-.4.75.75,0,0,1,.09-.36.3.3,0,0,1,.28-.17q1.51.08,2.6.08.66,0,2.23-.08a.33.33,0,0,1,.29.17.68.68,0,0,1,.11.36.57.57,0,0,1-.13.4.53.53,0,0,1-.32.08,3.19,3.19,0,0,0-1.63.33,2,2,0,0,0-.78,1.23l-2.94,9.78h-1.56L149.35,84l-2.62,8.67h-1.56Z" transform="translate(-7.15 -7.55)"/><path class="cls-1" d="M165.85,91.86a5.48,5.48,0,0,1-2.11-2.31,7.24,7.24,0,0,1-.72-3.23,6.59,6.59,0,0,1,.73-3A6.05,6.05,0,0,1,165.84,81a5.46,5.46,0,0,1,3.1-.9,5.08,5.08,0,0,1,3.63,1.21A4.91,4.91,0,0,1,174,84.52a1.33,1.33,0,0,1-.48,1.19,2.49,2.49,0,0,1-1.38.32h-6.44a6.66,6.66,0,0,0,1,3.91,4.15,4.15,0,0,0,5.1,1,4.9,4.9,0,0,0,1.51-1.66.38.38,0,0,1,.27-.13.5.5,0,0,1,.32.11.52.52,0,0,1,.27.48.44.44,0,0,1-.05.24A5.93,5.93,0,0,1,172.08,92a5.59,5.59,0,0,1-2.85.73A6.38,6.38,0,0,1,165.85,91.86Zm4.2-6.84q1.35,0,1.43-1.11a3.26,3.26,0,0,0-.66-2.07,2.25,2.25,0,0,0-1.88-.85,2.75,2.75,0,0,0-2.23,1.07,5,5,0,0,0-1,3Z" transform="translate(-7.15 -7.55)"/><path class="cls-1" d="M178.89,92.31a.6.6,0,0,1-.12-.37c0-.23.07-.37.16-.41a1.19,1.19,0,0,1,.48-.07,1.56,1.56,0,0,0,1-.24.85.85,0,0,0,.33-.56,9,9,0,0,0,0-1V83.59a9.05,9.05,0,0,0,0-1,.85.85,0,0,0-.33-.56,1.57,1.57,0,0,0-1-.24,1,1,0,0,1-.48-.09q-.16-.09-.16-.44a.51.51,0,0,1,.11-.3.44.44,0,0,1,.32-.17,14.13,14.13,0,0,0,2.84-.69c.3-.09.5-.14.61-.16h.08q.42,0,.42.5v1.64h.08a9,9,0,0,1,1.88-1.47,3.56,3.56,0,0,1,1.72-.54,1.69,1.69,0,0,1,1.39.65,2.34,2.34,0,0,1,.52,1.5,2.11,2.11,0,0,1-.45,1.33,1.49,1.49,0,0,1-1.25.58,1.29,1.29,0,0,1-.65-.16c-.19-.11-.29-.19-.3-.27a3.08,3.08,0,0,1,.27-.33,1,1,0,0,0,.24-.65,1.14,1.14,0,0,0-.25-.77.85.85,0,0,0-.68-.29,2.29,2.29,0,0,0-1.14.44,8,8,0,0,0-1.35,1.1v6.47a6.74,6.74,0,0,0,.05,1,.9.9,0,0,0,.34.56,1.56,1.56,0,0,0,1,.24h.16a.53.53,0,0,1,.32.08.57.57,0,0,1,.13.4.65.65,0,0,1-.11.37.36.36,0,0,1-.32.16q-1.54-.08-2.78-.08t-2.76.08A.37.37,0,0,1,178.89,92.31Z" transform="translate(-7.15 -7.55)"/><path class="cls-1" d="M194.15,92a2.3,2.3,0,0,1-1.33-2.09,1.71,1.71,0,0,1,.46-1.25,1.61,1.61,0,0,1,1.21-.48,1.26,1.26,0,0,1,.76.24q.33.24.33.37a2.4,2.4,0,0,1-.3.34,1.25,1.25,0,0,0-.3.9,1.43,1.43,0,0,0,.73,1.26,3.94,3.94,0,0,0,2.11.46,3.11,3.11,0,0,0,1.95-.54,1.82,1.82,0,0,0,.7-1.52,1.53,1.53,0,0,0-.4-1.09,2.73,2.73,0,0,0-1-.66q-.6-.24-1.66-.56a15.78,15.78,0,0,1-2.12-.74,3.71,3.71,0,0,1-1.4-1.11,3,3,0,0,1-.58-1.93,2.81,2.81,0,0,1,.69-1.91,4.2,4.2,0,0,1,1.79-1.19,6.77,6.77,0,0,1,2.32-.4,5.36,5.36,0,0,1,2.72.66A2.05,2.05,0,0,1,202,82.58a1.8,1.8,0,0,1-.44,1.22,1.45,1.45,0,0,1-1.15.5,1.26,1.26,0,0,1-.76-.24q-.33-.24-.33-.37s.07-.09.21-.21a2.33,2.33,0,0,0,.38-.44,1,1,0,0,0,.17-.6,1.37,1.37,0,0,0-.72-1.11,3,3,0,0,0-1.56-.4,3.3,3.3,0,0,0-1.76.46,1.44,1.44,0,0,0-.76,1.29,2,2,0,0,0,.32,1.18,2.18,2.18,0,0,0,1,.7q.64.27,2,.72a17.75,17.75,0,0,1,2.2.84,3.25,3.25,0,0,1,1.26,1,2.88,2.88,0,0,1,.46,1.71,3.31,3.31,0,0,1-.64,2,4.15,4.15,0,0,1-1.75,1.38,6.12,6.12,0,0,1-2.49.49A7,7,0,0,1,194.15,92Z" transform="translate(-7.15 -7.55)"/><circle class="cls-2" cx="100.94" cy="1.44" r="0.87"/><circle class="cls-2" cx="100.8" cy="9.09" r="0.87" transform="translate(-6.07 18.84) rotate(-15)"/><circle class="cls-2" cx="93.77" cy="11.08" r="0.87" transform="translate(-0.13 40.81) rotate(-30)"/><circle class="cls-2" cx="87.49" cy="14.81" r="0.87" transform="translate(8 58.65) rotate(-45)"/><circle class="cls-2" cx="82.39" cy="20.05" r="0.87" transform="translate(16.68 73.82) rotate(-60)"/><circle class="cls-2" cx="78.83" cy="26.42" r="0.87" transform="translate(25.75 88.17) rotate(-75)"/><circle class="cls-2" cx="69.87" cy="25.94" r="0.87"/><circle class="cls-2" cx="77.13" cy="40.8" r="0.87" transform="translate(-15.09 13.8) rotate(-15)"/><circle class="cls-2" cx="79.11" cy="47.83" r="0.87" transform="translate(-20.47 38.41) rotate(-30)"/><circle class="cls-2" cx="82.85" cy="54.11" r="0.87" transform="translate(-21.15 66.87) rotate(-45)"/><circle class="cls-2" cx="88.08" cy="59.2" r="0.87" transform="translate(-14.39 98.33) rotate(-60)"/><circle class="cls-2" cx="94.45" cy="62.77" r="0.87" transform="translate(2.22 130.2) rotate(-75)"/><circle class="cls-2" cx="94.38" cy="57.01" r="0.87"/><circle class="cls-2" cx="108.83" cy="64.47" r="0.87" transform="translate(-20.13 22.81) rotate(-15)"/><circle class="cls-2" cx="115.86" cy="62.49" r="0.87" transform="translate(-22.88 58.75) rotate(-30)"/><circle class="cls-2" cx="122.14" cy="58.75" r="0.87" transform="translate(-12.92 96.02) rotate(-45)"/><circle class="cls-2" cx="127.24" cy="53.52" r="0.87" transform="translate(10.11 129.4) rotate(-60)"/><circle class="cls-2" cx="130.8" cy="47.15" r="0.87" transform="translate(44.26 153.74) rotate(-75)"/><path class="cls-2" d="M132.45,35.19a1.57,1.57,0,0,0-.85.24A3.35,3.35,0,0,0,129.39,34c-.07-.13-.15-.26-.23-.38s.09-.28.12-.42a3.35,3.35,0,0,0,1.75-2,1.57,1.57,0,0,0,.88,0,1.59,1.59,0,1,0-.82-3.08,1.57,1.57,0,0,0-.75.46,3.36,3.36,0,0,0-2.52-.86l-.32-.31c0-.15,0-.29,0-.44a3.35,3.35,0,0,0,1.18-2.39,1.57,1.57,0,0,0,.85-.21A1.59,1.59,0,1,0,128,21.59a1.57,1.57,0,0,0-.61.64,3.35,3.35,0,0,0-2.66-.18l-.39-.21c0-.14-.06-.29-.1-.43a3.35,3.35,0,0,0,.52-2.61,1.57,1.57,0,0,0,.77-.42,1.59,1.59,0,0,0-2.25-2.25,1.57,1.57,0,0,0-.42.77,3.35,3.35,0,0,0-2.61.52l-.43-.1c-.07-.13-.14-.26-.21-.39a3.35,3.35,0,0,0-.18-2.66,1.59,1.59,0,0,0,.05-2.78,1.59,1.59,0,0,0-2.17.58,1.57,1.57,0,0,0-.21.85,3.38,3.38,0,0,0-2.39,1.18h-.44l-.3-.32a3.35,3.35,0,0,0-.86-2.52,1.57,1.57,0,0,0,.46-.75,1.59,1.59,0,1,0-3.08-.82,1.57,1.57,0,0,0,0,.88,3.35,3.35,0,0,0-2,1.75l-.42.12-.38-.23A3.35,3.35,0,0,0,106.16,10a1.57,1.57,0,0,0,.24-.85,1.59,1.59,0,1,0-3.18,0,1.57,1.57,0,0,0,.24.85A3.35,3.35,0,0,0,102,12.2l-.38.23-.42-.12a3.35,3.35,0,0,0-2-1.75,1.59,1.59,0,0,0-1.93-2,1.59,1.59,0,0,0-1.13,1.95,1.57,1.57,0,0,0,.46.75,3.35,3.35,0,0,0-.86,2.52l-.31.32H95a3.41,3.41,0,0,0-2.39-1.18,1.57,1.57,0,0,0-.21-.85,1.59,1.59,0,0,0-2.76,1.59,1.57,1.57,0,0,0,.64.61,3.35,3.35,0,0,0-.18,2.66c-.08.13-.15.26-.21.39l-.43.1a3.35,3.35,0,0,0-2.61-.52,1.57,1.57,0,0,0-.42-.77,1.63,1.63,0,0,0-2.25,0,1.59,1.59,0,0,0,.77,2.68,3.35,3.35,0,0,0,.52,2.61c0,.14-.07.29-.1.43l-.39.21a3.35,3.35,0,0,0-2.66.18,1.59,1.59,0,0,0-2.78-.05,1.59,1.59,0,0,0,.58,2.18,1.58,1.58,0,0,0,.85.21,3.35,3.35,0,0,0,1.18,2.39c0,.15,0,.3,0,.44l-.32.31a3.35,3.35,0,0,0-2.52.86,1.57,1.57,0,0,0-.75-.46,1.59,1.59,0,1,0-.82,3.08,1.57,1.57,0,0,0,.88,0,3.35,3.35,0,0,0,1.75,2c0,.14.08.29.12.42s-.16.25-.23.38A3.35,3.35,0,0,0,78,35.44a1.57,1.57,0,0,0-.85-.24,1.59,1.59,0,1,0,0,3.18,1.57,1.57,0,0,0,.85-.24,3.35,3.35,0,0,0,2.21,1.48c.07.13.15.26.23.38s-.09.28-.12.42a3.35,3.35,0,0,0-1.75,2,1.57,1.57,0,0,0-.88,0A1.59,1.59,0,1,0,79.29,45a3.36,3.36,0,0,0,2.52.86c.1.11.21.2.32.3s0,.3,0,.45A3.35,3.35,0,0,0,80.94,49a1.57,1.57,0,0,0-.85.21A1.59,1.59,0,0,0,81.68,52a1.57,1.57,0,0,0,.61-.63,3.35,3.35,0,0,0,2.66.18l.39.21c0,.14.06.29.1.43a3.35,3.35,0,0,0-.52,2.61,1.57,1.57,0,0,0-.77.42,1.59,1.59,0,0,0,2.25,2.25,1.57,1.57,0,0,0,.42-.77,3.35,3.35,0,0,0,2.61-.52l.43.1c.07.13.14.26.21.39a3.35,3.35,0,0,0,.18,2.66,1.59,1.59,0,0,0,.74,3,1.59,1.59,0,0,0,1.38-.8,1.57,1.57,0,0,0,.21-.85h0A3.37,3.37,0,0,0,95,59.48h.44l.31.32a3.35,3.35,0,0,0,.86,2.52,1.59,1.59,0,0,0,1.08,2.76,1.59,1.59,0,0,0,1.54-1.18,1.57,1.57,0,0,0,0-.88,3.35,3.35,0,0,0,2-1.75l.42-.12.38.23a3.35,3.35,0,0,0,1.48,2.21,1.57,1.57,0,0,0-.24.85,1.59,1.59,0,1,0,3.18,0,1.57,1.57,0,0,0-.24-.85,3.35,3.35,0,0,0,1.48-2.21l.38-.23.42.12a3.35,3.35,0,0,0,2,1.75,1.59,1.59,0,0,0,.72,1.85,1.58,1.58,0,0,0,.79.21,1.6,1.6,0,0,0,.41-.06,1.59,1.59,0,0,0,.67-2.7,3.35,3.35,0,0,0,.86-2.52l.31-.32h.44A3.38,3.38,0,0,0,117,60.66a1.57,1.57,0,0,0,.21.85A1.59,1.59,0,1,0,120,59.92a1.57,1.57,0,0,0-.63-.61,3.35,3.35,0,0,0,.18-2.66c.08-.13.15-.26.21-.39l.43-.1a3.35,3.35,0,0,0,2.61.52,1.57,1.57,0,0,0,.42.77,1.59,1.59,0,0,0,2.25-2.25,1.57,1.57,0,0,0-.77-.42,3.35,3.35,0,0,0-.52-2.61c0-.14.07-.29.1-.43l.39-.21a3.35,3.35,0,0,0,2.66-.18A1.57,1.57,0,0,0,128,52a1.59,1.59,0,1,0,1.59-2.76,1.57,1.57,0,0,0-.85-.21,3.35,3.35,0,0,0-1.18-2.39c0-.15,0-.3,0-.45s.22-.19.32-.3a3.36,3.36,0,0,0,2.52-.86,1.59,1.59,0,1,0,.7-2.6,3.35,3.35,0,0,0-1.75-2c0-.14-.08-.28-.12-.42s.16-.25.23-.38a3.35,3.35,0,0,0,2.21-1.48,1.57,1.57,0,0,0,.85.24,1.59,1.59,0,1,0,0-3.18Zm-8.9,16a5,5,0,0,1-2.2.36,22.22,22.22,0,0,0,2-2.57A5,5,0,0,1,123.55,51.15Zm-4.37,4.37a5,5,0,0,1-2.21-.23,22.22,22.22,0,0,0,2.57-2A5,5,0,0,1,119.18,55.52Zm-5.33,3.08a5,5,0,0,1-2.08-.8,22,22,0,0,0,3-1.24A5,5,0,0,1,113.85,58.6Zm-5.95,1.59a5,5,0,0,1-1.81-1.31,22.16,22.16,0,0,0,3.2-.42A5,5,0,0,1,107.91,60.19Zm-6.18,0a5,5,0,0,1-1.4-1.72,22.16,22.16,0,0,0,3.2.42A5,5,0,0,1,101.72,60.19ZM95.78,58.6a5,5,0,0,1-.91-2,22,22,0,0,0,3,1.24A5,5,0,0,1,95.78,58.6Zm-5.33-3.08a5,5,0,0,1-.36-2.2,22.23,22.23,0,0,0,2.57,2A5,5,0,0,1,90.45,55.52Zm-4.37-4.37a5,5,0,0,1,.23-2.21,22.22,22.22,0,0,0,2,2.57A5,5,0,0,1,86.08,51.15Zm0-28.73a5,5,0,0,1,2.2-.36,22.23,22.23,0,0,0-2,2.57A5,5,0,0,1,86.08,22.42ZM90.45,18a5,5,0,0,1,2.21.23,22.22,22.22,0,0,0-2.57,2A5,5,0,0,1,90.45,18ZM95.78,15a5,5,0,0,1,2.08.8,22,22,0,0,0-3,1.24A5,5,0,0,1,95.78,15Zm5.95-1.59a5,5,0,0,1,1.81,1.31,22.16,22.16,0,0,0-3.2.42A5,5,0,0,1,101.72,13.38Zm6.18,0a5,5,0,0,1,1.4,1.72,22.16,22.16,0,0,0-3.2-.42A5,5,0,0,1,107.91,13.38ZM113.85,15a5,5,0,0,1,.91,2,22,22,0,0,0-3-1.24A5,5,0,0,1,113.85,15ZM119.18,18a5,5,0,0,1,.35,2.2,22.22,22.22,0,0,0-2.56-2,4.77,4.77,0,0,1,2.21-.23Zm4.37,4.36a5,5,0,0,1-.23,2.22,22.23,22.23,0,0,0-2-2.57l.33,0A5,5,0,0,1,123.55,22.41Zm1,4.43a5,5,0,0,1,2,.91,5,5,0,0,1-.8,2.08A22,22,0,0,0,124.59,26.84Zm-40.8,3a5,5,0,0,1-.8-2.08,5,5,0,0,1,2-.91A22,22,0,0,0,83.79,29.83ZM82.71,35.5a5,5,0,0,1-1.31-1.81,5,5,0,0,1,1.72-1.4A22.17,22.17,0,0,0,82.71,35.5Zm.42,5.77a5,5,0,0,1-1.72-1.4,5,5,0,0,1,1.31-1.81A22.16,22.16,0,0,0,83.13,41.27ZM85,46.73a5,5,0,0,1-2-.91,5,5,0,0,1,.8-2.08A22,22,0,0,0,85,46.73Zm40.8-3a5,5,0,0,1,.8,2.08,5,5,0,0,1-2,.91A22,22,0,0,0,125.84,43.74Zm1.08-5.67a5,5,0,0,1,1.31,1.81,5,5,0,0,1-1.72,1.4A22.16,22.16,0,0,0,126.92,38.07Zm-.42-5.77a5,5,0,0,1,1.72,1.4,5,5,0,0,1-1.31,1.81A22.16,22.16,0,0,0,126.5,32.3Zm1.21-3.76a2.45,2.45,0,0,1,2.31,1,.42.42,0,0,0,.76-.09.78.78,0,0,1,.53-.51.76.76,0,0,1,.39,1.47.78.78,0,0,1-.71-.17.42.42,0,0,0-.71.3c0,1.33-1.5,2-1.52,2a.41.41,0,0,0-.25.29,5.79,5.79,0,0,0-2.25-1.47c0-.16-.09-.32-.13-.48a5.79,5.79,0,0,0,1.22-2.41A.42.42,0,0,0,127.71,28.53Zm-2.92-5.65a2.45,2.45,0,0,1,2.48.33.42.42,0,0,0,.71-.29.78.78,0,0,1,.38-.62.76.76,0,1,1,.76,1.32.78.78,0,0,1-.73,0,.42.42,0,0,0-.61.47,2.45,2.45,0,0,1-1,2.31.41.41,0,0,0-.16.34,5.79,5.79,0,0,0-2.57-.84l-.25-.43a5.79,5.79,0,0,0,.55-2.64A.42.42,0,0,0,124.8,22.89Zm-4.28-4.7a2.45,2.45,0,0,1,2.48-.32.42.42,0,0,0,.61-.47.78.78,0,0,1,.21-.7.76.76,0,0,1,1.08,1.08.78.78,0,0,1-.7.21.42.42,0,0,0-.47.61,2.45,2.45,0,0,1-.32,2.48.42.42,0,0,0-.07.38,5.79,5.79,0,0,0-2.7-.15l-.35-.35a5.79,5.79,0,0,0-.15-2.7A.42.42,0,0,0,120.52,18.19Zm-5.35-3.43a2.43,2.43,0,0,1,2.31-1,.42.42,0,0,0,.47-.61.78.78,0,0,1,0-.73.76.76,0,1,1,1.32.76.78.78,0,0,1-.62.38h0a.42.42,0,0,0-.29.71,2.45,2.45,0,0,1,.33,2.48.42.42,0,0,0,0,.38,5.79,5.79,0,0,0-2.64.55l-.43-.25a5.79,5.79,0,0,0-.84-2.57A.41.41,0,0,0,115.17,14.76Zm-6.05-1.93s.63-1.52,2-1.52h0a.42.42,0,0,0,.29-.71.78.78,0,0,1-.17-.71.76.76,0,1,1,1.47.39.78.78,0,0,1-.5.53.42.42,0,0,0-.1.76,2.45,2.45,0,0,1,1,2.31.42.42,0,0,0,.13.36,5.77,5.77,0,0,0-2.41,1.22l-.48-.13a5.79,5.79,0,0,0-1.47-2.25A.41.41,0,0,0,109.12,12.83Zm-6.35-.3s.22-1.65,1.52-2a.42.42,0,0,0,.1-.76.78.78,0,0,1-.35-.64.76.76,0,1,1,1.52,0,.78.78,0,0,1-.35.64.42.42,0,0,0,.1.76c1.29.33,1.52,2,1.52,2a.41.41,0,0,0,.22.31,5.79,5.79,0,0,0-2,1.8h-.49a5.79,5.79,0,0,0-2-1.8A.42.42,0,0,0,102.77,12.53Zm-6.21,1.36a2.45,2.45,0,0,1,1-2.31.42.42,0,0,0-.1-.76.78.78,0,0,1-.5-.53.76.76,0,0,1,.54-.93l.2,0a.76.76,0,0,1,.73.56.78.78,0,0,1-.17.71.42.42,0,0,0-.09.46.41.41,0,0,0,.39.25c1.34,0,2,1.5,2,1.52a.41.41,0,0,0,.29.25,5.79,5.79,0,0,0-1.47,2.25l-.48.13a5.82,5.82,0,0,0-2.41-1.22A.42.42,0,0,0,96.57,13.89ZM90.92,16.8a2.45,2.45,0,0,1,.33-2.48.41.41,0,0,0,.09-.45.42.42,0,0,0-.38-.26.78.78,0,0,1-.63-.38.76.76,0,0,1,1.32-.76.78.78,0,0,1,0,.73.42.42,0,0,0,.47.61,2.45,2.45,0,0,1,2.31,1,.41.41,0,0,0,.34.16A5.79,5.79,0,0,0,94,17.49l-.43.25a5.78,5.78,0,0,0-2.64-.55A.42.42,0,0,0,90.92,16.8Zm-4.7,4.28a2.45,2.45,0,0,1-.32-2.48.42.42,0,0,0-.36-.63h-.1a.78.78,0,0,1-.7-.21.76.76,0,0,1,0-1.08.76.76,0,0,1,1.28.7.42.42,0,0,0,.61.47,2.45,2.45,0,0,1,2.48.32.42.42,0,0,0,.38.07,5.79,5.79,0,0,0-.15,2.7L89,21.3a5.79,5.79,0,0,0-2.7.15A.42.42,0,0,0,86.22,21.08Zm-3.43,5.35a2.43,2.43,0,0,1-1-2.31.42.42,0,0,0-.4-.53.42.42,0,0,0-.2.05.78.78,0,0,1-.73,0,.76.76,0,1,1,.76-1.32.78.78,0,0,1,.38.62.42.42,0,0,0,.71.29,2.45,2.45,0,0,1,2.48-.33.42.42,0,0,0,.38,0,5.79,5.79,0,0,0,.55,2.64l-.25.43a5.79,5.79,0,0,0-2.57.84A.41.41,0,0,0,82.79,26.42Zm-1.93,6.05s-1.53-.65-1.52-2a.42.42,0,0,0-.71-.3.78.78,0,0,1-.71.17.76.76,0,0,1,.39-1.47.78.78,0,0,1,.53.5.42.42,0,0,0,.76.1,2.45,2.45,0,0,1,2.31-1,.41.41,0,0,0,.36-.13,5.79,5.79,0,0,0,1.22,2.41c0,.16-.09.32-.13.48a5.79,5.79,0,0,0-2.25,1.47A.42.42,0,0,0,80.86,32.48Zm-.3,6.35s-1.65-.22-2-1.52a.42.42,0,0,0-.35-.31h-.06a.42.42,0,0,0-.36.21.78.78,0,0,1-.64.35.76.76,0,1,1,0-1.52.78.78,0,0,1,.64.35.42.42,0,0,0,.76-.1c.33-1.29,2-1.52,2-1.52a.42.42,0,0,0,.31-.22,5.79,5.79,0,0,0,1.8,2c0,.08,0,.16,0,.24s0,.16,0,.25a5.79,5.79,0,0,0-1.8,2A.42.42,0,0,0,80.56,38.82ZM82,45h-.05a2.45,2.45,0,0,1-2.31-1,.42.42,0,0,0-.76.1.78.78,0,0,1-.53.5.76.76,0,1,1-.39-1.47.78.78,0,0,1,.71.17.42.42,0,0,0,.71-.3c0-1.33,1.5-2,1.52-2a.41.41,0,0,0,.25-.29,5.79,5.79,0,0,0,2.25,1.47c0,.16.09.32.13.48a5.79,5.79,0,0,0-1.22,2.41A.42.42,0,0,0,82,45Zm3,5.62a.42.42,0,0,0-.16,0,2.45,2.45,0,0,1-2.48-.33.42.42,0,0,0-.71.29.78.78,0,0,1-.38.62.76.76,0,0,1-.76-1.32.78.78,0,0,1,.73,0,.42.42,0,0,0,.61-.47,2.45,2.45,0,0,1,1-2.31.42.42,0,0,0,.16-.35,5.78,5.78,0,0,0,2.56.84l.25.43a5.79,5.79,0,0,0-.55,2.64A.41.41,0,0,0,85,50.65Zm4.12,4.73a2.43,2.43,0,0,1-2.48.32.42.42,0,0,0-.61.47.78.78,0,0,1-.21.7.76.76,0,1,1-.53-1.3h.15A.42.42,0,0,0,85.9,55a2.45,2.45,0,0,1,.32-2.48.42.42,0,0,0,.07-.38,5.7,5.7,0,0,0,2.7.15l.35.35a5.79,5.79,0,0,0,.15,2.7A.42.42,0,0,0,89.11,55.38Zm5.35,3.43a2.45,2.45,0,0,1-2.31,1,.42.42,0,0,0-.47.6.78.78,0,0,1,0,.73.76.76,0,1,1-1.32-.76A.78.78,0,0,1,91,60h0a.42.42,0,0,0,.29-.71,2.45,2.45,0,0,1-.33-2.48.42.42,0,0,0,0-.38,5.79,5.79,0,0,0,2.64-.55l.43.25a5.79,5.79,0,0,0,.84,2.57A.43.43,0,0,0,94.46,58.81Zm6.05,1.93s-.63,1.52-2,1.52h0a.42.42,0,0,0-.29.71.78.78,0,0,1,.17.71.76.76,0,0,1-1.47-.39.78.78,0,0,1,.5-.53.42.42,0,0,0,.1-.76,2.45,2.45,0,0,1-1-2.31.42.42,0,0,0-.13-.36,5.79,5.79,0,0,0,2.41-1.22l.48.13a5.79,5.79,0,0,0,1.47,2.25A.41.41,0,0,0,100.51,60.74Zm6.35.3s-.22,1.65-1.52,2a.42.42,0,0,0-.1.76.78.78,0,0,1,.35.64.76.76,0,1,1-1.52,0,.78.78,0,0,1,.35-.64.42.42,0,0,0-.1-.76c-1.29-.33-1.52-2-1.52-2a.42.42,0,0,0-.22-.31,5.79,5.79,0,0,0,2-1.8h.49a5.79,5.79,0,0,0,2,1.8A.42.42,0,0,0,106.86,61Zm6.21-1.35a2.43,2.43,0,0,1-1,2.31.42.42,0,0,0,.1.76.78.78,0,0,1,.5.53.76.76,0,0,1-1.47.39.78.78,0,0,1,.17-.71.42.42,0,0,0-.29-.71h0c-1.32,0-2-1.5-2-1.52a.41.41,0,0,0-.29-.25,5.79,5.79,0,0,0,1.47-2.25l.48-.13a5.77,5.77,0,0,0,2.41,1.22A.42.42,0,0,0,113.06,59.68Zm5.65-2.92a2.45,2.45,0,0,1-.33,2.48.42.42,0,0,0,.29.71h0a.78.78,0,0,1,.62.38.76.76,0,1,1-1.32.76.78.78,0,0,1,0-.73.42.42,0,0,0-.36-.62l-.11,0a2.45,2.45,0,0,1-2.31-1,.41.41,0,0,0-.35-.16,5.79,5.79,0,0,0,.84-2.57l.43-.25a5.79,5.79,0,0,0,2.64.55A.42.42,0,0,0,118.71,56.76Zm4.7-4.28a2.43,2.43,0,0,1,.32,2.48.42.42,0,0,0,.47.61.78.78,0,0,1,.7.21.76.76,0,1,1-1.08,1.08.78.78,0,0,1-.21-.7.42.42,0,0,0-.61-.47,2.45,2.45,0,0,1-2.48-.32.41.41,0,0,0-.38-.07,5.79,5.79,0,0,0,.15-2.7l.35-.35a5.7,5.7,0,0,0,2.7-.15A.42.42,0,0,0,123.41,52.49Zm3.43-5.35a2.45,2.45,0,0,1,1,2.31.42.42,0,0,0,.61.47.77.77,0,0,1,.73,0,.76.76,0,1,1-.76,1.32.78.78,0,0,1-.38-.62.42.42,0,0,0-.71-.29,2.45,2.45,0,0,1-2.48.33.42.42,0,0,0-.38,0,5.79,5.79,0,0,0-.55-2.64l.25-.43a5.78,5.78,0,0,0,2.56-.84A.42.42,0,0,0,126.84,47.14Zm1.93-6.05s1.53.65,1.52,2a.41.41,0,0,0,.25.38.42.42,0,0,0,.45-.08.79.79,0,0,1,.71-.17.76.76,0,0,1-.39,1.47.78.78,0,0,1-.53-.5.42.42,0,0,0-.76-.1,2.45,2.45,0,0,1-2.31,1,.41.41,0,0,0-.36.13,5.79,5.79,0,0,0-1.22-2.41c0-.16.09-.32.13-.48a5.79,5.79,0,0,0,2.25-1.47A.42.42,0,0,0,128.77,41.09Zm3.68-3.54a.78.78,0,0,1-.64-.35.42.42,0,0,0-.76.1c-.33,1.29-2,1.52-2,1.52a.42.42,0,0,0-.31.22,5.79,5.79,0,0,0-1.8-2c0-.08,0-.16,0-.25s0-.16,0-.25a5.79,5.79,0,0,0,1.8-2,.42.42,0,0,0,.31.22s1.65.22,2,1.52a.42.42,0,0,0,.76.1.78.78,0,0,1,.64-.35.76.76,0,1,1,0,1.52Z" transform="translate(-7.15 -7.55)"/><circle class="cls-2" cx="125.45" cy="32.51" r="0.87"/><circle class="cls-2" cx="132.5" cy="32.76" r="0.87" transform="translate(-11.12 27.86) rotate(-15)"/><circle class="cls-2" cx="130.52" cy="25.73" r="0.87" transform="translate(-2.54 61.15) rotate(-30)"/><circle class="cls-2" cx="126.78" cy="19.46" r="0.87" transform="translate(16.22 87.79) rotate(-45)"/><circle class="cls-2" cx="121.55" cy="14.36" r="0.87" transform="translate(41.18 104.89) rotate(-60)"/><circle class="cls-2" cx="115.18" cy="10.79" r="0.87" transform="translate(67.79 111.7) rotate(-75)"/><circle class="cls-3" cx="97.66" cy="29.23" r="20.89"/><path class="cls-2" d="M104.92,26.6A10.17,10.17,0,1,0,115.1,36.77,10.17,10.17,0,0,0,104.92,26.6Zm-.44,18.75a8.83,8.83,0,0,1-1-.05,7.78,7.78,0,0,0,6-4,6.58,6.58,0,0,1-9.94-5.46,6.18,6.18,0,0,0,5.23,2.85c4.54,0,5.78-2.72,5.78-5.09A3.79,3.79,0,0,0,106.7,30a3.28,3.28,0,0,0-3.41,3.46,2.71,2.71,0,0,0,3,2.56,1.86,1.86,0,1,0,0-3.73A1.32,1.32,0,0,0,104.93,34a1.58,1.58,0,0,1,1.58-1.06,1.18,1.18,0,0,1,1.2,1.19,1.37,1.37,0,0,1-1.32,1.21,1.88,1.88,0,0,1-2-2.07,2.37,2.37,0,0,1,2.55-2.32,3,3,0,0,1,2.84,2.89c0,2-1.18,3.51-4.39,3.51a4.08,4.08,0,0,1-4.08-4.08A4.39,4.39,0,0,1,106,28.77c3.28,0,7.07,2.51,7.07,8A8.61,8.61,0,0,1,104.48,45.36Z" transform="translate(-7.15 -7.55)"/><path class="cls-2" d="M93.79,43.13a8.31,8.31,0,0,0-4.85,1.12c3.23-.22,4.64,1.15,6.32,2.4a5,5,0,0,0-2.45,2.94c3.82-1.72,4.89-.52,7.5-.73s3.36-1.31,3.36-1.31a11.5,11.5,0,0,1-2.52-.51C97,45.69,96.65,43.33,93.79,43.13Z" transform="translate(-7.15 -7.55)"/></svg>