<svg id="Слой_1" data-name="Слой 1" xmlns="http://www.w3.org/2000/svg" viewBox="0 0 366.81 71.7"><defs><style>.cls-1{fill:#231f20;}.cls-2{fill:#e3c9b7;}</style></defs><title>logov2-01</title><path class="cls-1" d="M68.39,64.32a9.61,9.61,0,0,1-1.28-5.22,13.74,13.74,0,0,1,.71-4.55,5.72,5.72,0,0,1,2-2.72,7.88,7.88,0,0,1,3.41-1.28q.84-.12,1.59-.16a5.44,5.44,0,0,0,1.36-.25.82.82,0,0,0,.44-.74.32.32,0,0,1,.35-.3c.23,0,.35.13.35.37a4.33,4.33,0,0,1-.6,2,2.27,2.27,0,0,1-1.21.88,15.36,15.36,0,0,1-2.36.44,11.38,11.38,0,0,0-2.79.63,3.63,3.63,0,0,0-1.78,1.78,8.79,8.79,0,0,0-.73,4h.07a6.59,6.59,0,0,1,1.65-3.06,4.11,4.11,0,0,1,3-1,5.14,5.14,0,0,1,2.79.75,5,5,0,0,1,1.83,2,5.87,5.87,0,0,1,.63,2.68,6.09,6.09,0,0,1-.71,2.94,5.42,5.42,0,0,1-1.89,2.06,4.61,4.61,0,0,1-2.5.74A4.69,4.69,0,0,1,68.39,64.32Zm6.38-.18a8.32,8.32,0,0,0,.63-3.55q0-4.57-2.86-4.57a2.22,2.22,0,0,0-2.2,1.3,8.43,8.43,0,0,0-.61,3.52q0,4.61,2.81,4.61A2.26,2.26,0,0,0,74.77,64.14Z" transform="translate(-1.5 -1.76)"/><path class="cls-1" d="M79,70.51A1.93,1.93,0,0,1,78.19,69q0-1.05.59-1.35a2.24,2.24,0,0,1,.91-.29,1.2,1.2,0,0,1,.66.16c.17.11.26.21.26.3s-.06.11-.19.23a.91.91,0,0,0-.19.66,1.24,1.24,0,0,0,.29.82,1,1,0,0,0,.83.35q1.48,0,2.88-3a2,2,0,0,0,.09-.49,1.94,1.94,0,0,0-.12-.59q-.47-1.05-1.57-3.91-1-2.55-1.57-3.89a4.1,4.1,0,0,0-.75-1.25,1.8,1.8,0,0,0-1-.43l-.26,0c-.12,0-.2-.05-.23-.12a.79.79,0,0,1,0-.33c0-.19.05-.3.15-.35a1,1,0,0,1,.37-.08h.29a4,4,0,0,1,2.25.41,3.54,3.54,0,0,1,1.36,1.67q.51,1.19.91,2.27.94,2.53,1.52,3.7h.07L88,57.27a2.38,2.38,0,0,0,.12-.56.35.35,0,0,0-.23-.35,2.28,2.28,0,0,0-.77-.09h-.14a.41.41,0,0,1-.27-.07.55.55,0,0,1-.1-.35.65.65,0,0,1,.08-.32.26.26,0,0,1,.25-.15q1.33.07,2.27.07l1.45,0,.49,0a.29.29,0,0,1,.26.15.6.6,0,0,1,.09.32c0,.19-.06.3-.12.35a.46.46,0,0,1-.28.07,2.61,2.61,0,0,0-1.33.28,2.16,2.16,0,0,0-.8,1.1l-1.73,4.28Q86,64.88,85.43,66.28a14.72,14.72,0,0,1-2,3.44,3.34,3.34,0,0,1-2.69,1.43A2.75,2.75,0,0,1,79,70.51Z" transform="translate(-1.5 -1.76)"/><path class="cls-1" d="M101.09,65.86a2.94,2.94,0,0,1-.94-.95,11.72,11.72,0,0,1-.75-1.51A15.33,15.33,0,0,0,98.71,62a2.73,2.73,0,0,0-.78-.86,2,2,0,0,0-1.22-.35H96v2.83a5.9,5.9,0,0,0,0,.89.8.8,0,0,0,.3.49,1.38,1.38,0,0,0,.87.21h.14a.47.47,0,0,1,.28.07.51.51,0,0,1,.12.35.58.58,0,0,1-.09.33.32.32,0,0,1-.28.14Q96,66,94.91,66q-.94,0-2.27.07a.29.29,0,0,1-.26-.14.57.57,0,0,1-.09-.33c0-.2.06-.32.13-.36a.89.89,0,0,1,.39-.06,1.12,1.12,0,0,0,.75-.15.6.6,0,0,0,.23-.41q0-.23,0-1V57.85q0-.14,0-.68a1,1,0,0,0-.25-.74,1.12,1.12,0,0,0-.77-.18h-.14a.41.41,0,0,1-.27-.07.55.55,0,0,1-.11-.35.57.57,0,0,1,.09-.33.29.29,0,0,1,.26-.14q1.33.07,2.27.07t2.46-.07a.32.32,0,0,1,.28.14.58.58,0,0,1,.09.33c0,.2-.06.32-.13.36a1,1,0,0,1-.41.06,1.37,1.37,0,0,0-.87.21A.79.79,0,0,0,96,57a5.89,5.89,0,0,0,0,.89V60.1h1.08q1,0,1.71-1.36a6,6,0,0,0,.27-.56c.07-.17.14-.32.2-.44a11.6,11.6,0,0,1,.61-1.29,3,3,0,0,1,.76-.87,2.1,2.1,0,0,1,1.18-.42,1.88,1.88,0,0,1,1.39.53,1.66,1.66,0,0,1,.53,1.21,1.2,1.2,0,0,1-.22.73,1.77,1.77,0,0,1-.52.48,1,1,0,0,1-.5.18l-.13,0s-.06-.05-.06-.12a1.43,1.43,0,0,0-.23-.83.73.73,0,0,0-.63-.34,1.15,1.15,0,0,0-.95.42,3.52,3.52,0,0,0-.53.88q-.19.46-.28.64a3.06,3.06,0,0,1-1.24,1.36v0a2.86,2.86,0,0,1,1.6.53A3.78,3.78,0,0,1,101,62a15.19,15.19,0,0,1,.8,1.63,7.77,7.77,0,0,0,.62,1.28.78.78,0,0,0,.67.41.7.7,0,0,0,.47-.14,1.91,1.91,0,0,0,.34-.41q.18-.27.29-.27h0a.32.32,0,0,1,.28.14.39.39,0,0,1,0,.33,1.33,1.33,0,0,1-.73,1,3,3,0,0,1-2.76,0Z" transform="translate(-1.5 -1.76)"/><path class="cls-1" d="M108,65.58a4.83,4.83,0,0,1-1.86-2,6.38,6.38,0,0,1-.63-2.86,5.81,5.81,0,0,1,.64-2.66A5.33,5.33,0,0,1,108,56a4.83,4.83,0,0,1,2.74-.8,4.48,4.48,0,0,1,3.21,1.07,4.34,4.34,0,0,1,1.29,2.87,1.18,1.18,0,0,1-.42,1.05,2.2,2.2,0,0,1-1.22.28H107.9a5.88,5.88,0,0,0,.9,3.45,3.66,3.66,0,0,0,4.51.84,4.35,4.35,0,0,0,1.33-1.46.34.34,0,0,1,.23-.12.44.44,0,0,1,.28.09.46.46,0,0,1,.23.42.38.38,0,0,1,0,.21,5.24,5.24,0,0,1-1.84,1.81,4.93,4.93,0,0,1-2.52.64A5.63,5.63,0,0,1,108,65.58Zm3.71-6q1.2,0,1.26-1a2.88,2.88,0,0,0-.59-1.83,2,2,0,0,0-1.66-.75,2.43,2.43,0,0,0-2,.95,4.43,4.43,0,0,0-.87,2.61Z" transform="translate(-1.5 -1.76)"/><path class="cls-1" d="M119.46,66a.53.53,0,0,1-.11-.33c0-.2.06-.32.13-.36a1,1,0,0,1,.41-.06,1.38,1.38,0,0,0,.87-.21.8.8,0,0,0,.3-.49,6.05,6.05,0,0,0,0-.89V56.19h-1a1.77,1.77,0,0,0-1.1.29,1.62,1.62,0,0,0-.54.84,12.73,12.73,0,0,0-.33,1.67.35.35,0,0,1-.23.28,1.15,1.15,0,0,1-.47.09.59.59,0,0,1-.35-.12.36.36,0,0,1-.16-.3l.07-3q0-.54.56-.54h9.29q.56,0,.56.54l.07,3a.36.36,0,0,1-.16.3.59.59,0,0,1-.35.12,1.15,1.15,0,0,1-.47-.09.35.35,0,0,1-.23-.28,11,11,0,0,0-.35-1.65,1.69,1.69,0,0,0-.59-.87,1.88,1.88,0,0,0-1.12-.29h-.94v7.45c0,.09,0,.32,0,.68a1,1,0,0,0,.25.74,1.11,1.11,0,0,0,.77.18h.14a.42.42,0,0,1,.27.07.56.56,0,0,1,.11.35.58.58,0,0,1-.09.33.29.29,0,0,1-.26.14Q123.1,66,122.16,66t-2.43.07A.32.32,0,0,1,119.46,66Z" transform="translate(-1.5 -1.76)"/><path class="cls-1" d="M129,66a.57.57,0,0,1-.09-.33c0-.2.06-.32.13-.36a1,1,0,0,1,.41-.06,1.38,1.38,0,0,0,.87-.21.75.75,0,0,0,.29-.48,7.88,7.88,0,0,0,0-.9V57.26a.92.92,0,0,0-.29-.75,1.38,1.38,0,0,0-.9-.25h-.14a.46.46,0,0,1-.29-.07.55.55,0,0,1-.1-.35.57.57,0,0,1,.09-.33.31.31,0,0,1,.28-.14q1.33.07,2.43.07.91,0,2.25-.07a.32.32,0,0,1,.28.14.58.58,0,0,1,.09.33c0,.2-.06.32-.13.36a.88.88,0,0,1-.39.06,1.13,1.13,0,0,0-.75.15.6.6,0,0,0-.23.41q0,.23,0,1V60h5V57.85c0-.09,0-.32,0-.68a1,1,0,0,0-.25-.74,1.12,1.12,0,0,0-.77-.18h-.14a.41.41,0,0,1-.27-.07.55.55,0,0,1-.1-.35.58.58,0,0,1,.09-.33.3.3,0,0,1,.26-.14q1.33.07,2.27.07t2.43-.07a.31.31,0,0,1,.28.14.57.57,0,0,1,.09.33c0,.2-.06.32-.13.36a1,1,0,0,1-.41.06,1.38,1.38,0,0,0-.87.21.8.8,0,0,0-.3.49,6,6,0,0,0,0,.89v5.78a6.05,6.05,0,0,0,0,.89.8.8,0,0,0,.3.49,1.38,1.38,0,0,0,.87.21h.14a.47.47,0,0,1,.28.07.51.51,0,0,1,.12.35.57.57,0,0,1-.09.33.31.31,0,0,1-.28.14q-1.36-.07-2.43-.07t-2.27.07a.29.29,0,0,1-.26-.14.58.58,0,0,1-.09-.33c0-.2.06-.32.13-.36a.89.89,0,0,1,.39-.06,1.12,1.12,0,0,0,.75-.15.6.6,0,0,0,.23-.41c0-.16,0-.5,0-1V60.9h-5v2.74c0,.09,0,.32,0,.68a1,1,0,0,0,.25.74,1.11,1.11,0,0,0,.77.18h.12a.47.47,0,0,1,.28.07.51.51,0,0,1,.12.35.58.58,0,0,1-.09.33.32.32,0,0,1-.28.14Q132.6,66,131.69,66q-1.1,0-2.43.07A.31.31,0,0,1,129,66Z" transform="translate(-1.5 -1.76)"/><path class="cls-1" d="M144.14,65.53a2.85,2.85,0,0,1,.12-4.2,5.24,5.24,0,0,1,2.34-1,33.89,33.89,0,0,1,3.51-.34V58.18a2.42,2.42,0,0,0-.57-1.74,2.45,2.45,0,0,0-1.84-.6,1.93,1.93,0,0,0-1.26.44,1.47,1.47,0,0,0-.54,1.19,1,1,0,0,0,.18.62,2.16,2.16,0,0,0,.37.41.93.93,0,0,1,.2.19q0,.14-.29.36a1.15,1.15,0,0,1-.71.22,1.35,1.35,0,0,1-1.11-.52,1.9,1.9,0,0,1-.41-1.22,1.92,1.92,0,0,1,1.09-1.8,5.5,5.5,0,0,1,2.63-.59,6,6,0,0,1,3.13.73,2.88,2.88,0,0,1,1.21,2.69V64a1.89,1.89,0,0,0,.3.94,1,1,0,0,0,.91.44.3.3,0,0,1,.35.37q0,.28-.43.41a3,3,0,0,1-.85.13,2.52,2.52,0,0,1-1.57-.52,1.92,1.92,0,0,1-.77-1.38,3.27,3.27,0,0,1-1.51,1.4,5,5,0,0,1-2.19.49A3.23,3.23,0,0,1,144.14,65.53Zm4.49-.87a2.93,2.93,0,0,0,1.08-1.09,3,3,0,0,0,.4-1.53V60.71a8.4,8.4,0,0,0-3.46.8,2.13,2.13,0,0,0-1,2q0,1.59,1.52,1.59A2.86,2.86,0,0,0,148.64,64.67Z" transform="translate(-1.5 -1.76)"/><path class="cls-1" d="M155.38,66a2.1,2.1,0,0,1-.74-.55,1,1,0,0,1-.27-.61.33.33,0,0,1,.37-.37q.16,0,.37.3a2,2,0,0,0,.33.37.62.62,0,0,0,.42.14,1,1,0,0,0,.81-.4,9.75,9.75,0,0,0,.86-1.26l.26-.41.21-.34a4.63,4.63,0,0,1,1-1.16,3.77,3.77,0,0,1,1.33-.62v0a4.92,4.92,0,0,1-1.4-.26,3.79,3.79,0,0,1-1.22-.66,2.48,2.48,0,0,1,.29-4,6,6,0,0,1,3.13-.7h3.3q1.08,0,2.43-.07a.3.3,0,0,1,.26.14.58.58,0,0,1,.09.33c0,.2-.06.32-.13.36a1,1,0,0,1-.41.06,1.38,1.38,0,0,0-.87.21.75.75,0,0,0-.29.49,8.17,8.17,0,0,0,0,.89v5.78a8.18,8.18,0,0,0,0,.89.75.75,0,0,0,.29.49,1.38,1.38,0,0,0,.87.21h.14a.46.46,0,0,1,.29.07.56.56,0,0,1,.1.35.58.58,0,0,1-.09.33.29.29,0,0,1-.26.14q-1.36-.07-2.43-.07t-2.27.07a.31.31,0,0,1-.28-.14.57.57,0,0,1-.09-.33c0-.2.06-.32.13-.36a.89.89,0,0,1,.39-.06q.7,0,.87-.25a1.38,1.38,0,0,0,.16-.73v-3h-.54a2.25,2.25,0,0,0-1.63.57,7.75,7.75,0,0,0-1.25,1.72A12.31,12.31,0,0,1,159,65a3.46,3.46,0,0,1-1,.88,3.11,3.11,0,0,1-1.57.36A2.43,2.43,0,0,1,155.38,66Zm8-5.4V57a.6.6,0,0,0-.39-.63,4,4,0,0,0-1.25-.14,2.81,2.81,0,0,0-1.85.56,2,2,0,0,0-.68,1.64,2,2,0,0,0,.94,1.71,4.46,4.46,0,0,0,2.2.44Z" transform="translate(-1.5 -1.76)"/><path class="cls-1" d="M206.63,66a.53.53,0,0,1-.1-.33c0-.2.06-.32.14-.36a1.05,1.05,0,0,1,.42-.06A1.38,1.38,0,0,0,208,65a.8.8,0,0,0,.3-.5,6.05,6.05,0,0,0,0-.88l0-5.78a2.79,2.79,0,0,0-.12-.95.73.73,0,0,0-.36-.41,3.93,3.93,0,0,0-.78-.23l-.26-.06a.3.3,0,0,1-.23-.13.71.71,0,0,1,0-.3.36.36,0,0,1,.14-.34.86.86,0,0,1,.42-.08,11.37,11.37,0,0,1,2.06.15,3.38,3.38,0,0,1,1.44.64,4.42,4.42,0,0,1,1.16,1.45l2.79,5.27h0l3.07-7.42H219q1.05,0,2.43-.07a.29.29,0,0,1,.26.14.57.57,0,0,1,.09.33c0,.2-.06.32-.13.36a1,1,0,0,1-.41.06,1.38,1.38,0,0,0-.87.21.75.75,0,0,0-.29.49,7.94,7.94,0,0,0,0,.89v5.78a8,8,0,0,0,0,.89.75.75,0,0,0,.29.49,1.38,1.38,0,0,0,.87.21h.14a.46.46,0,0,1,.29.07.56.56,0,0,1,.1.35.57.57,0,0,1-.09.33.29.29,0,0,1-.26.14Q220.08,66,219,66t-2.27.07a.32.32,0,0,1-.27-.14.53.53,0,0,1-.1-.33c0-.2.06-.32.13-.36a.89.89,0,0,1,.39-.06,1.17,1.17,0,0,0,.76-.15.59.59,0,0,0,.25-.41q0-.23,0-1v-6.2h-.07L214.33,66h-.61l-4.4-8.62h0l0,6.2a7.9,7.9,0,0,0,0,.89.74.74,0,0,0,.29.49,1.38,1.38,0,0,0,.87.21h.14a.52.52,0,0,1,.3.07.51.51,0,0,1,.12.35.53.53,0,0,1-.11.33.32.32,0,0,1-.27.14l-.61,0-.94,0h-.66l-1,0-.61,0A.32.32,0,0,1,206.63,66Z" transform="translate(-1.5 -1.76)"/><path class="cls-1" d="M224.06,65.53a2.85,2.85,0,0,1,.12-4.2,5.24,5.24,0,0,1,2.34-1A33.88,33.88,0,0,1,230,60V58.18a2.43,2.43,0,0,0-.57-1.74,2.45,2.45,0,0,0-1.84-.6,1.92,1.92,0,0,0-1.26.44,1.47,1.47,0,0,0-.54,1.19,1,1,0,0,0,.18.62,2.13,2.13,0,0,0,.37.41.93.93,0,0,1,.2.19q0,.14-.29.36a1.15,1.15,0,0,1-.71.22,1.35,1.35,0,0,1-1.11-.52,1.9,1.9,0,0,1-.41-1.22,1.92,1.92,0,0,1,1.09-1.8,5.51,5.51,0,0,1,2.63-.59,6,6,0,0,1,3.12.73,2.88,2.88,0,0,1,1.21,2.69V64a1.9,1.9,0,0,0,.3.94,1,1,0,0,0,.91.44.41.41,0,0,1,.27.07.4.4,0,0,1,.08.3c0,.19-.14.32-.43.41a3,3,0,0,1-.86.13,2.52,2.52,0,0,1-1.57-.52,1.92,1.92,0,0,1-.77-1.38,3.27,3.27,0,0,1-1.51,1.4,5,5,0,0,1-2.19.49A3.22,3.22,0,0,1,224.06,65.53Zm4.49-.87a2.94,2.94,0,0,0,1.08-1.09A3,3,0,0,0,230,62V60.71a8.39,8.39,0,0,0-3.46.8,2.12,2.12,0,0,0-1,2q0,1.59,1.52,1.59A2.87,2.87,0,0,0,228.56,64.67Z" transform="translate(-1.5 -1.76)"/><path class="cls-1" d="M236.35,64.81a6.23,6.23,0,0,1-.57-6.92,5.38,5.38,0,0,1,2-2,5.78,5.78,0,0,1,2.74-.76,5.57,5.57,0,0,1,2.59.56,2,2,0,0,1,1.09,1.87,2,2,0,0,1-.43,1.28,1.4,1.4,0,0,1-1.16.55,1.25,1.25,0,0,1-.76-.23q-.32-.23-.32-.4a1.09,1.09,0,0,1,.21-.21,2.27,2.27,0,0,0,.39-.46,1.11,1.11,0,0,0,.18-.62,1.26,1.26,0,0,0-.53-1.1,2.14,2.14,0,0,0-1.28-.37A2.46,2.46,0,0,0,238,57.35a7.55,7.55,0,0,0-.64,3.31,5.49,5.49,0,0,0,.89,3.23,2.76,2.76,0,0,0,2.36,1.26,3.26,3.26,0,0,0,1.72-.43,4.22,4.22,0,0,0,1.3-1.32.25.25,0,0,1,.23-.12.59.59,0,0,1,.26.07.39.39,0,0,1,.19.16.45.45,0,0,1,.07.23.4.4,0,0,1-.07.19,5.77,5.77,0,0,1-1.92,1.74,4.69,4.69,0,0,1-2.32.64A4.76,4.76,0,0,1,236.35,64.81Z" transform="translate(-1.5 -1.76)"/><path class="cls-1" d="M248.31,66a.53.53,0,0,1-.11-.33c0-.2.06-.32.13-.36a1,1,0,0,1,.41-.06,1.38,1.38,0,0,0,.87-.21.8.8,0,0,0,.3-.49,6.05,6.05,0,0,0,0-.89V56.19h-1a1.77,1.77,0,0,0-1.1.29,1.62,1.62,0,0,0-.54.84A12.73,12.73,0,0,0,247,59a.35.35,0,0,1-.23.28,1.15,1.15,0,0,1-.47.09.59.59,0,0,1-.35-.12.36.36,0,0,1-.16-.3l.07-3q0-.54.56-.54h9.29q.56,0,.56.54l.07,3a.36.36,0,0,1-.16.3.59.59,0,0,1-.35.12,1.15,1.15,0,0,1-.47-.09.35.35,0,0,1-.23-.28,11,11,0,0,0-.35-1.65,1.69,1.69,0,0,0-.59-.87,1.88,1.88,0,0,0-1.12-.29h-.94v7.45c0,.09,0,.32,0,.68a1,1,0,0,0,.25.74,1.11,1.11,0,0,0,.77.18h.14a.42.42,0,0,1,.27.07.56.56,0,0,1,.11.35.58.58,0,0,1-.09.33.29.29,0,0,1-.26.14Q251.95,66,251,66t-2.43.07A.32.32,0,0,1,248.31,66Z" transform="translate(-1.5 -1.76)"/><path class="cls-1" d="M260.34,65.58a4.83,4.83,0,0,1-1.86-2,6.38,6.38,0,0,1-.63-2.86,5.81,5.81,0,0,1,.64-2.66A5.33,5.33,0,0,1,260.33,56a4.83,4.83,0,0,1,2.74-.8,4.48,4.48,0,0,1,3.21,1.07,4.34,4.34,0,0,1,1.29,2.87,1.18,1.18,0,0,1-.42,1.05,2.2,2.2,0,0,1-1.22.28h-5.69a5.88,5.88,0,0,0,.9,3.45,3.66,3.66,0,0,0,4.51.84A4.35,4.35,0,0,0,267,63.26a.34.34,0,0,1,.23-.12.44.44,0,0,1,.28.09.46.46,0,0,1,.23.42.38.38,0,0,1,0,.21,5.24,5.24,0,0,1-1.84,1.81,4.93,4.93,0,0,1-2.52.64A5.63,5.63,0,0,1,260.34,65.58Zm3.71-6q1.2,0,1.26-1a2.88,2.88,0,0,0-.59-1.83,2,2,0,0,0-1.66-.75,2.43,2.43,0,0,0-2,.95,4.43,4.43,0,0,0-.87,2.61Z" transform="translate(-1.5 -1.76)"/><path class="cls-1" d="M269.28,70.78a.53.53,0,0,1-.11-.33c0-.2.06-.32.13-.36a1,1,0,0,1,.41-.06,1.34,1.34,0,0,0,.84-.21.87.87,0,0,0,.32-.52,4.86,4.86,0,0,0,.06-.87V58.28a8.18,8.18,0,0,0,0-.89.75.75,0,0,0-.29-.49,1.39,1.39,0,0,0-.87-.21.86.86,0,0,1-.42-.08c-.09-.05-.14-.18-.14-.39a.45.45,0,0,1,.09-.27.39.39,0,0,1,.28-.15,12.5,12.5,0,0,0,2.5-.61l.54-.14h.07c.25,0,.37.15.37.44v1.12h.07a5.78,5.78,0,0,1,1.59-1,4.23,4.23,0,0,1,1.73-.41,4.61,4.61,0,0,1,2.52.7,4.79,4.79,0,0,1,1.74,2,6.43,6.43,0,0,1,.63,2.89,5.65,5.65,0,0,1-.75,2.91,5.32,5.32,0,0,1-2,2,5.25,5.25,0,0,1-2.62.7,5.65,5.65,0,0,1-1.62-.2,5.14,5.14,0,0,1-1.19-.53h-.09v2.83a4.85,4.85,0,0,0,.06.87.86.86,0,0,0,.32.52,1.34,1.34,0,0,0,.84.21h.14a.47.47,0,0,1,.28.07.51.51,0,0,1,.12.35.58.58,0,0,1-.09.33.31.31,0,0,1-.28.14q-1.36-.07-2.46-.07t-2.43.07A.32.32,0,0,1,269.28,70.78Zm8.9-6.7a7,7,0,0,0,.76-3.28,5.73,5.73,0,0,0-.84-3.15,2.78,2.78,0,0,0-2.5-1.32,2.85,2.85,0,0,0-1.39.32,4.82,4.82,0,0,0-1.14.9v6.27a2.7,2.7,0,0,0,1,1.21,2.91,2.91,0,0,0,1.72.5A2.53,2.53,0,0,0,278.18,64.08Z" transform="translate(-1.5 -1.76)"/><path class="cls-1" d="M284.63,64.81a6.23,6.23,0,0,1-.57-6.92,5.38,5.38,0,0,1,2-2,5.77,5.77,0,0,1,2.74-.76,5.58,5.58,0,0,1,2.59.56,1.94,1.94,0,0,1,1.09,1.87,2,2,0,0,1-.43,1.28,1.4,1.4,0,0,1-1.16.55,1.24,1.24,0,0,1-.76-.23q-.32-.23-.32-.4a1.09,1.09,0,0,1,.21-.21,2.27,2.27,0,0,0,.39-.46,1.11,1.11,0,0,0,.18-.62,1.26,1.26,0,0,0-.53-1.1,2.15,2.15,0,0,0-1.28-.37,2.46,2.46,0,0,0-2.45,1.32,7.55,7.55,0,0,0-.64,3.31,5.48,5.48,0,0,0,.89,3.23,2.76,2.76,0,0,0,2.36,1.26,3.25,3.25,0,0,0,1.72-.43,4.21,4.21,0,0,0,1.3-1.32.25.25,0,0,1,.23-.12.59.59,0,0,1,.26.07.39.39,0,0,1,.19.16.46.46,0,0,1,.07.23.41.41,0,0,1-.07.19,5.78,5.78,0,0,1-1.92,1.74,4.69,4.69,0,0,1-2.32.64A4.76,4.76,0,0,1,284.63,64.81Z" transform="translate(-1.5 -1.76)"/><path class="cls-1" d="M303.08,65.86a2.94,2.94,0,0,1-.94-.95,11.72,11.72,0,0,1-.75-1.51A15.36,15.36,0,0,0,300.7,62a2.74,2.74,0,0,0-.78-.86,2,2,0,0,0-1.22-.35H298v2.83a5.93,5.93,0,0,0,0,.89.8.8,0,0,0,.3.49,1.38,1.38,0,0,0,.87.21h.14a.47.47,0,0,1,.28.07.5.5,0,0,1,.12.35.58.58,0,0,1-.09.33.31.31,0,0,1-.28.14Q298,66,296.9,66q-.94,0-2.27.07a.29.29,0,0,1-.26-.14.58.58,0,0,1-.09-.33c0-.2.06-.32.13-.36a.89.89,0,0,1,.39-.06,1.12,1.12,0,0,0,.75-.15.6.6,0,0,0,.23-.41q0-.23,0-1V57.85c0-.09,0-.32,0-.68a1,1,0,0,0-.25-.74,1.12,1.12,0,0,0-.77-.18h-.14a.41.41,0,0,1-.27-.07.55.55,0,0,1-.1-.35.58.58,0,0,1,.09-.33.3.3,0,0,1,.26-.14q1.33.07,2.27.07t2.46-.07a.32.32,0,0,1,.28.14.58.58,0,0,1,.09.33c0,.2-.06.32-.13.36a1,1,0,0,1-.41.06,1.38,1.38,0,0,0-.87.21.79.79,0,0,0-.3.49,5.92,5.92,0,0,0,0,.89V60.1h1.08q1,0,1.71-1.36a6,6,0,0,0,.27-.56c.07-.17.14-.32.2-.44a11.45,11.45,0,0,1,.61-1.29,3,3,0,0,1,.76-.87,2.1,2.1,0,0,1,1.18-.42,1.88,1.88,0,0,1,1.39.53,1.66,1.66,0,0,1,.53,1.21,1.19,1.19,0,0,1-.22.73,1.77,1.77,0,0,1-.52.48,1,1,0,0,1-.5.18l-.13,0s-.06-.05-.06-.12a1.43,1.43,0,0,0-.23-.83.73.73,0,0,0-.63-.34,1.15,1.15,0,0,0-.95.42,3.52,3.52,0,0,0-.53.88q-.19.46-.28.64a3.05,3.05,0,0,1-1.24,1.36v0a2.86,2.86,0,0,1,1.6.53A3.77,3.77,0,0,1,303,62a15.19,15.19,0,0,1,.8,1.63,7.77,7.77,0,0,0,.62,1.28.78.78,0,0,0,.67.41.7.7,0,0,0,.47-.14,1.91,1.91,0,0,0,.34-.41q.18-.27.29-.27h0a.31.31,0,0,1,.28.14.39.39,0,0,1,0,.33,1.33,1.33,0,0,1-.73,1,3,3,0,0,1-2.76,0Z" transform="translate(-1.5 -1.76)"/><path class="cls-1" d="M308.44,65.53a2.85,2.85,0,0,1,.12-4.2,5.24,5.24,0,0,1,2.34-1,33.88,33.88,0,0,1,3.51-.34V58.18a2.42,2.42,0,0,0-.57-1.74,2.45,2.45,0,0,0-1.84-.6,1.93,1.93,0,0,0-1.26.44,1.47,1.47,0,0,0-.54,1.19,1,1,0,0,0,.18.62,2.19,2.19,0,0,0,.37.41.93.93,0,0,1,.2.19c0,.09-.1.22-.29.36a1.15,1.15,0,0,1-.71.22,1.35,1.35,0,0,1-1.11-.52,1.9,1.9,0,0,1-.41-1.22,1.92,1.92,0,0,1,1.09-1.8,5.5,5.5,0,0,1,2.63-.59,6,6,0,0,1,3.13.73,2.88,2.88,0,0,1,1.21,2.69V64a1.89,1.89,0,0,0,.3.94,1,1,0,0,0,.91.44.41.41,0,0,1,.27.07.4.4,0,0,1,.08.3q0,.28-.43.41a3,3,0,0,1-.85.13,2.52,2.52,0,0,1-1.57-.52,1.91,1.91,0,0,1-.77-1.38,3.27,3.27,0,0,1-1.51,1.4,5,5,0,0,1-2.19.49A3.22,3.22,0,0,1,308.44,65.53Zm4.49-.87A2.94,2.94,0,0,0,314,63.58a3,3,0,0,0,.4-1.53V60.71a8.39,8.39,0,0,0-3.46.8,2.12,2.12,0,0,0-1,2q0,1.59,1.52,1.59A2.87,2.87,0,0,0,312.94,64.67Z" transform="translate(-1.5 -1.76)"/><path class="cls-1" d="M319.68,66a2.1,2.1,0,0,1-.74-.55,1,1,0,0,1-.27-.61.33.33,0,0,1,.37-.37c.11,0,.23.1.37.3a1.93,1.93,0,0,0,.33.37.62.62,0,0,0,.42.14,1,1,0,0,0,.81-.4,9.76,9.76,0,0,0,.85-1.26l.26-.41.21-.34a4.61,4.61,0,0,1,1-1.16,3.75,3.75,0,0,1,1.33-.62v0a4.91,4.91,0,0,1-1.4-.26,3.8,3.8,0,0,1-1.22-.66,2.48,2.48,0,0,1,.29-4,6,6,0,0,1,3.13-.7h3.3q1.08,0,2.43-.07a.3.3,0,0,1,.26.14.58.58,0,0,1,.09.33c0,.2-.06.32-.13.36a1,1,0,0,1-.41.06,1.37,1.37,0,0,0-.87.21.74.74,0,0,0-.29.49,7.88,7.88,0,0,0,0,.89v5.78a7.9,7.9,0,0,0,0,.89.74.74,0,0,0,.29.49,1.38,1.38,0,0,0,.87.21h.14a.46.46,0,0,1,.29.07.56.56,0,0,1,.11.35.58.58,0,0,1-.09.33.29.29,0,0,1-.26.14q-1.36-.07-2.43-.07t-2.27.07a.31.31,0,0,1-.28-.14.57.57,0,0,1-.09-.33c0-.2.06-.32.13-.36a.89.89,0,0,1,.39-.06q.7,0,.87-.25a1.38,1.38,0,0,0,.16-.73v-3h-.54a2.25,2.25,0,0,0-1.63.57,7.78,7.78,0,0,0-1.25,1.72,12.2,12.2,0,0,1-.91,1.43,3.48,3.48,0,0,1-1,.88,3.12,3.12,0,0,1-1.57.36A2.43,2.43,0,0,1,319.68,66Zm8-5.4V57a.6.6,0,0,0-.39-.63,4,4,0,0,0-1.25-.14,2.81,2.81,0,0,0-1.85.56,2,2,0,0,0-.68,1.64,2,2,0,0,0,.94,1.71,4.46,4.46,0,0,0,2.2.44Z" transform="translate(-1.5 -1.76)"/><path class="cls-1" d="M19.67,37.8,8.47,12.46H8.32l.1,19.76a13.28,13.28,0,0,0,.2,2.07,2.1,2.1,0,0,0,.82,1.24,3.45,3.45,0,0,0,2.12.52h.3a1.18,1.18,0,0,1,.72.18,1.26,1.26,0,0,1,.27.87,1.32,1.32,0,0,1-.22.77.76.76,0,0,1-.67.32l-1.24-.05q-2.29-.1-3.29-.1-1.69,0-4.93.15a.76.76,0,0,1-.67-.32,1.32,1.32,0,0,1-.22-.77q0-.75.3-.9a2,2,0,0,1,.95-.15A3.45,3.45,0,0,0,5,35.54a2.1,2.1,0,0,0,.82-1.24A13.28,13.28,0,0,0,6,32.23l.1-19.76a5.9,5.9,0,0,0-.35-2.32,2.13,2.13,0,0,0-1-1.09,8.39,8.39,0,0,0-2-.57l-.6-.12a.7.7,0,0,1-.52-.3,1.55,1.55,0,0,1-.12-.72.86.86,0,0,1,.32-.8,2,2,0,0,1,1-.2,25.65,25.65,0,0,1,4.83.37A7.49,7.49,0,0,1,11,8.23a8.48,8.48,0,0,1,2.37,3.38l8.56,19.22h.15L31.87,6.64H34.7q2.74,0,5.92-.15a.76.76,0,0,1,.67.32,1.32,1.32,0,0,1,.22.77q-.05.75-.32.9a2.07,2.07,0,0,1-.92.15,3.57,3.57,0,0,0-2.14.52,2.19,2.19,0,0,0-.87,1.29,11.49,11.49,0,0,0-.22,2V32.23a11.47,11.47,0,0,0,.22,2,2.19,2.19,0,0,0,.87,1.29,3.57,3.57,0,0,0,2.14.52h.3a1.08,1.08,0,0,1,.67.18,1.26,1.26,0,0,1,.27.87,1.32,1.32,0,0,1-.22.77.76.76,0,0,1-.67.32q-3.19-.15-6-.15t-6.12.15a.76.76,0,0,1-.67-.32,1.32,1.32,0,0,1-.22-.77q0-.75.3-.9a2,2,0,0,1,.95-.15A3.57,3.57,0,0,0,31,35.54a2.2,2.2,0,0,0,.87-1.29,11.65,11.65,0,0,0,.22-2V12.46H32L21.71,37.8c-.13.33-.47.5-1,.5A1.12,1.12,0,0,1,19.67,37.8Z" transform="translate(-1.5 -1.76)"/><path class="cls-1" d="M50.64,37a5.5,5.5,0,0,1-1.84-4.23A5.51,5.51,0,0,1,50.88,28a11.17,11.17,0,0,1,5-2,72.53,72.53,0,0,1,7.47-.72V21.32a5.15,5.15,0,0,0-1.22-3.71,5.22,5.22,0,0,0-3.91-1.27,4.1,4.1,0,0,0-2.69.95,3.13,3.13,0,0,0-1.14,2.54,2.22,2.22,0,0,0,.37,1.32,4.52,4.52,0,0,0,.8.87c.28.23.42.37.42.4q0,.3-.62.77a2.44,2.44,0,0,1-1.52.47,2.86,2.86,0,0,1-2.37-1.1A4,4,0,0,1,50.59,20a4.08,4.08,0,0,1,2.31-3.83,11.69,11.69,0,0,1,5.6-1.24,12.76,12.76,0,0,1,6.65,1.54q2.56,1.54,2.56,5.72v11.6a4,4,0,0,0,.65,2,2.12,2.12,0,0,0,1.94.95.88.88,0,0,1,.57.15.86.86,0,0,1,.17.65q0,.6-.92.87a6.36,6.36,0,0,1-1.82.27A5.37,5.37,0,0,1,65,37.55a4.08,4.08,0,0,1-1.64-2.94,6.94,6.94,0,0,1-3.21,3,10.56,10.56,0,0,1-4.65,1A6.86,6.86,0,0,1,50.64,37Zm9.56-1.84a6.26,6.26,0,0,0,2.29-2.32,6.41,6.41,0,0,0,.85-3.26V26.7q-5.23.4-7.37,1.69a4.51,4.51,0,0,0-2.14,4.18q0,3.39,3.24,3.39A6.1,6.1,0,0,0,60.19,35.11Z" transform="translate(-1.5 -1.76)"/><path class="cls-1" d="M78.64,37.9a1.13,1.13,0,0,1-.22-.7c0-.43.13-.69.3-.77a2.24,2.24,0,0,1,.9-.12,2.94,2.94,0,0,0,1.84-.45,1.59,1.59,0,0,0,.62-1,17,17,0,0,0,.07-1.89V21.52a17,17,0,0,0-.07-1.89,1.59,1.59,0,0,0-.62-1,2.94,2.94,0,0,0-1.84-.45,1.81,1.81,0,0,1-.9-.17q-.3-.18-.3-.82a1,1,0,0,1,.2-.57.83.83,0,0,1,.6-.32A26.54,26.54,0,0,0,84.54,15c.56-.16.95-.27,1.14-.3h.15q.8,0,.8.95v3.09h.15a16.85,16.85,0,0,1,3.53-2.76,6.69,6.69,0,0,1,3.24-1,3.17,3.17,0,0,1,2.61,1.22,4.39,4.39,0,0,1,1,2.81,4,4,0,0,1-.85,2.49,2.79,2.79,0,0,1-2.34,1.09,2.42,2.42,0,0,1-1.22-.3c-.35-.2-.54-.36-.57-.5a5.78,5.78,0,0,1,.5-.62,1.82,1.82,0,0,0,.45-1.22,2.13,2.13,0,0,0-.47-1.44,1.59,1.59,0,0,0-1.27-.55,4.31,4.31,0,0,0-2.14.82,15,15,0,0,0-2.54,2.07V32.92a12.67,12.67,0,0,0,.1,1.89,1.7,1.7,0,0,0,.65,1,2.93,2.93,0,0,0,1.84.45h.3a1,1,0,0,1,.6.15,1.08,1.08,0,0,1,.25.75,1.23,1.23,0,0,1-.2.7.67.67,0,0,1-.6.3q-2.89-.15-5.23-.15t-5.18.15A.69.69,0,0,1,78.64,37.9Z" transform="translate(-1.5 -1.76)"/><path class="cls-1" d="M104.78,37.9a1.13,1.13,0,0,1-.22-.7c0-.43.13-.69.3-.77a2.24,2.24,0,0,1,.9-.12,2.94,2.94,0,0,0,1.84-.45,1.59,1.59,0,0,0,.62-1,17,17,0,0,0,.07-1.89V21.52a17,17,0,0,0-.07-1.89,1.59,1.59,0,0,0-.62-1,2.94,2.94,0,0,0-1.84-.45,1.81,1.81,0,0,1-.9-.17q-.3-.18-.3-.82a1,1,0,0,1,.2-.57.83.83,0,0,1,.6-.32A25.47,25.47,0,0,0,110.73,15a5.35,5.35,0,0,1,1.14-.3H112q.8,0,.8.95V32.92a12.67,12.67,0,0,0,.1,1.89,1.7,1.7,0,0,0,.65,1,2.93,2.93,0,0,0,1.84.45h.3a1,1,0,0,1,.6.15,1.08,1.08,0,0,1,.25.75,1.23,1.23,0,0,1-.2.7.67.67,0,0,1-.6.3q-2.89-.15-5.23-.15t-5.18.15A.69.69,0,0,1,104.78,37.9Zm3.16-29.65A2.82,2.82,0,0,1,107,6.09a2.57,2.57,0,0,1,1.14-2,4.09,4.09,0,0,1,2.59-.9,2.65,2.65,0,0,1,2,.87,3.16,3.16,0,0,1,.8,2.22,2.64,2.64,0,0,1-.95,2,3.38,3.38,0,0,1-2.34.85A3.32,3.32,0,0,1,107.94,8.26Z" transform="translate(-1.5 -1.76)"/><path class="cls-1" d="M126.16,37a5.5,5.5,0,0,1-1.84-4.23,5.51,5.51,0,0,1,2.09-4.7,11.17,11.17,0,0,1,5-2,72.53,72.53,0,0,1,7.47-.72V21.32a5.15,5.15,0,0,0-1.22-3.71,5.22,5.22,0,0,0-3.91-1.27,4.1,4.1,0,0,0-2.69.95,3.13,3.13,0,0,0-1.14,2.54,2.22,2.22,0,0,0,.37,1.32,4.52,4.52,0,0,0,.8.87c.28.23.42.37.42.4q0,.3-.62.77a2.44,2.44,0,0,1-1.52.47,2.86,2.86,0,0,1-2.37-1.1,4,4,0,0,1-.87-2.59,4.08,4.08,0,0,1,2.31-3.83A11.69,11.69,0,0,1,134,14.9a12.76,12.76,0,0,1,6.65,1.54q2.56,1.54,2.56,5.72v11.6a4,4,0,0,0,.65,2,2.12,2.12,0,0,0,1.94.95.88.88,0,0,1,.57.15.86.86,0,0,1,.17.65q0,.6-.92.87a6.36,6.36,0,0,1-1.82.27,5.37,5.37,0,0,1-3.34-1.09,4.08,4.08,0,0,1-1.64-2.94,6.94,6.94,0,0,1-3.21,3,10.56,10.56,0,0,1-4.65,1A6.86,6.86,0,0,1,126.16,37Zm9.56-1.84A6.26,6.26,0,0,0,138,32.8a6.41,6.41,0,0,0,.85-3.26V26.7q-5.23.4-7.37,1.69a4.51,4.51,0,0,0-2.14,4.18q0,3.39,3.24,3.39A6.1,6.1,0,0,0,135.72,35.11Z" transform="translate(-1.5 -1.76)"/><path class="cls-1" d="M171,37.88a1.33,1.33,0,0,1-.22-.77q0-.75.3-.9a2,2,0,0,1,.95-.15,3.57,3.57,0,0,0,2.14-.52,2.2,2.2,0,0,0,.87-1.29,11.61,11.61,0,0,0,.22-2V12.46a11.63,11.63,0,0,0-.22-2,2.2,2.2,0,0,0-.87-1.29A3.57,3.57,0,0,0,172,8.63h-.3a1.06,1.06,0,0,1-.7-.17,1.37,1.37,0,0,1-.25-.87,1.33,1.33,0,0,1,.22-.77.72.72,0,0,1,.62-.32q3.24.15,5.92.15h14.39q1.29,0,1.29,1.2l.15,7a.82.82,0,0,1-.45.72,1.7,1.7,0,0,1-.9.27,2.47,2.47,0,0,1-1.07-.22.82.82,0,0,1-.52-.67,18.94,18.94,0,0,0-.82-3.71,3.79,3.79,0,0,0-1.39-1.89,4.92,4.92,0,0,0-2.61-.67h-5.43V21.57h8.91a.78.78,0,0,1,.6.37,1.45,1.45,0,0,1,.2.77,1.23,1.23,0,0,1-.2.7.67.67,0,0,1-.6.3h-8.91v8.51a11.48,11.48,0,0,0,.22,2,2.19,2.19,0,0,0,.87,1.29,3.57,3.57,0,0,0,2.14.52h.3a1.08,1.08,0,0,1,.67.18,1.26,1.26,0,0,1,.27.87,1.33,1.33,0,0,1-.22.77.76.76,0,0,1-.67.32q-3.19-.15-6.17-.15-2.74,0-6,.15A.72.72,0,0,1,171,37.88Z" transform="translate(-1.5 -1.76)"/><path class="cls-1" d="M200.46,37.9a1.13,1.13,0,0,1-.22-.7c0-.43.12-.69.27-.77a2,2,0,0,1,.87-.12,2.94,2.94,0,0,0,1.84-.45,1.7,1.7,0,0,0,.65-1,12.81,12.81,0,0,0,.1-1.89V8.63a16.89,16.89,0,0,0-.07-1.89,1.59,1.59,0,0,0-.62-1,2.94,2.94,0,0,0-1.84-.45,1.81,1.81,0,0,1-.9-.17q-.3-.17-.3-.82a1,1,0,0,1,.2-.57.83.83,0,0,1,.6-.32,25.52,25.52,0,0,0,5.38-1.29,5.35,5.35,0,0,1,1.15-.3h.15q.8,0,.8.95V32.92a12.74,12.74,0,0,0,.1,1.89,1.7,1.7,0,0,0,.65,1,2.94,2.94,0,0,0,1.84.45h.3a1,1,0,0,1,.6.15,1.08,1.08,0,0,1,.25.75,1.23,1.23,0,0,1-.2.7.67.67,0,0,1-.6.3q-2.89-.15-5.23-.15T201,38.2A.69.69,0,0,1,200.46,37.9Z" transform="translate(-1.5 -1.76)"/><path class="cls-1" d="M225.58,37a11.4,11.4,0,0,1-4.11-4.28A11.52,11.52,0,0,1,220,27.1a11.91,11.91,0,0,1,6.17-10.73,11.39,11.39,0,0,1,11.45.15,11.66,11.66,0,0,1,5.58,9.93,11.8,11.8,0,0,1-1.77,6.5A12.19,12.19,0,0,1,237,37.18a11.13,11.13,0,0,1-5.38,1.47A11.29,11.29,0,0,1,225.58,37Zm11-3.11a15.59,15.59,0,0,0,1.57-7.47,13.52,13.52,0,0,0-1.62-7,5.33,5.33,0,0,0-4.9-2.71,5.25,5.25,0,0,0-5,2.84A15.48,15.48,0,0,0,225.08,27a14,14,0,0,0,1.59,7,5.3,5.3,0,0,0,4.93,2.76A5.25,5.25,0,0,0,236.56,33.92Z" transform="translate(-1.5 -1.76)"/><path class="cls-1" d="M254.3,20.88a8.72,8.72,0,0,0-1.59-2.66,3.82,3.82,0,0,0-2.19-.92,3.42,3.42,0,0,0-.55-.1q-.4,0-.5-.25a1.7,1.7,0,0,1-.1-.7c0-.4.11-.65.32-.75a2.19,2.19,0,0,1,.8-.17l.62,0a8.61,8.61,0,0,1,4.78.87,7.53,7.53,0,0,1,2.89,3.56l4.58,12.89h.15q1.54-4.78,4.83-17.13h2.39l6.82,17.13h.15q.85-2.59,1.64-5.9t.95-3.81l.9-3.53a4.24,4.24,0,0,0,.15-1,.93.93,0,0,0-.45-.92,4,4,0,0,0-1.59-.22H279a.88.88,0,0,1-.57-.15,1.17,1.17,0,0,1-.22-.75,1.4,1.4,0,0,1,.17-.67.56.56,0,0,1,.52-.32q2.84.15,4.88.15,1.24,0,4.18-.15a.62.62,0,0,1,.55.32,1.28,1.28,0,0,1,.2.67,1.07,1.07,0,0,1-.25.75,1,1,0,0,1-.6.15,6,6,0,0,0-3.06.62,3.65,3.65,0,0,0-1.47,2.32L277.8,38.55h-2.94l-6.32-16.28-4.93,16.28h-2.94Z" transform="translate(-1.5 -1.76)"/><path class="cls-1" d="M299.53,37.06a10.28,10.28,0,0,1-4-4.33,13.59,13.59,0,0,1-1.34-6.07A12.38,12.38,0,0,1,295.6,21a11.37,11.37,0,0,1,3.91-4.41,10.26,10.26,0,0,1,5.82-1.69q4.43,0,6.82,2.27a9.22,9.22,0,0,1,2.74,6.1,2.5,2.5,0,0,1-.9,2.24,4.67,4.67,0,0,1-2.59.6h-12.1a12.51,12.51,0,0,0,1.92,7.34,7.79,7.79,0,0,0,9.58,1.79,9.2,9.2,0,0,0,2.84-3.11.72.72,0,0,1,.5-.25.93.93,0,0,1,.6.2,1,1,0,0,1,.5.9.82.82,0,0,1-.1.45,11.13,11.13,0,0,1-3.91,3.86,10.49,10.49,0,0,1-5.35,1.37A12,12,0,0,1,299.53,37.06Zm7.89-12.84q2.54,0,2.69-2.09a6.12,6.12,0,0,0-1.24-3.88,4.22,4.22,0,0,0-3.53-1.59,5.16,5.16,0,0,0-4.18,2,9.42,9.42,0,0,0-1.84,5.55Z" transform="translate(-1.5 -1.76)"/><path class="cls-1" d="M324,37.9a1.13,1.13,0,0,1-.22-.7c0-.43.13-.69.3-.77a2.24,2.24,0,0,1,.9-.12,2.94,2.94,0,0,0,1.84-.45,1.59,1.59,0,0,0,.62-1,17,17,0,0,0,.07-1.89V21.52a17,17,0,0,0-.07-1.89,1.59,1.59,0,0,0-.62-1,2.94,2.94,0,0,0-1.84-.45,1.81,1.81,0,0,1-.9-.17q-.3-.18-.3-.82a1,1,0,0,1,.2-.57.83.83,0,0,1,.6-.32A26.54,26.54,0,0,0,329.92,15c.56-.16.95-.27,1.14-.3h.15q.8,0,.8.95v3.09h.15a16.85,16.85,0,0,1,3.53-2.76,6.69,6.69,0,0,1,3.24-1,3.17,3.17,0,0,1,2.61,1.22,4.39,4.39,0,0,1,1,2.81,4,4,0,0,1-.85,2.49,2.79,2.79,0,0,1-2.34,1.09,2.42,2.42,0,0,1-1.22-.3c-.35-.2-.54-.36-.57-.5a5.78,5.78,0,0,1,.5-.62,1.82,1.82,0,0,0,.45-1.22,2.13,2.13,0,0,0-.47-1.44,1.59,1.59,0,0,0-1.27-.55,4.31,4.31,0,0,0-2.14.82,15,15,0,0,0-2.54,2.07V32.92a12.67,12.67,0,0,0,.1,1.89,1.7,1.7,0,0,0,.65,1,2.93,2.93,0,0,0,1.84.45h.3a1,1,0,0,1,.6.15,1.08,1.08,0,0,1,.25.75,1.23,1.23,0,0,1-.2.7.67.67,0,0,1-.6.3q-2.89-.15-5.23-.15t-5.18.15A.69.69,0,0,1,324,37.9Z" transform="translate(-1.5 -1.76)"/><path class="cls-1" d="M352.68,37.25a4.32,4.32,0,0,1-2.49-3.93,3.21,3.21,0,0,1,.87-2.34,3,3,0,0,1,2.27-.9,2.37,2.37,0,0,1,1.42.45q.62.45.62.7a4.51,4.51,0,0,1-.57.65,2.35,2.35,0,0,0-.57,1.69,2.68,2.68,0,0,0,1.37,2.36,7.41,7.41,0,0,0,4,.87,5.85,5.85,0,0,0,3.66-1,3.41,3.41,0,0,0,1.32-2.86,2.86,2.86,0,0,0-.75-2,5.13,5.13,0,0,0-1.87-1.25q-1.12-.45-3.11-1a29.63,29.63,0,0,1-4-1.39,7,7,0,0,1-2.64-2.09,5.7,5.7,0,0,1-1.1-3.63,5.28,5.28,0,0,1,1.29-3.58,7.88,7.88,0,0,1,3.36-2.24,12.71,12.71,0,0,1,4.36-.75,10.07,10.07,0,0,1,5.1,1.24,3.85,3.85,0,0,1,2.17,3.48,3.37,3.37,0,0,1-.82,2.29,2.73,2.73,0,0,1-2.17.95,2.36,2.36,0,0,1-1.42-.45q-.62-.45-.62-.7s.13-.17.4-.4a4.38,4.38,0,0,0,.72-.82,1.94,1.94,0,0,0,.32-1.12,2.56,2.56,0,0,0-1.34-2.09,5.6,5.6,0,0,0-2.94-.75,6.2,6.2,0,0,0-3.31.87,2.7,2.7,0,0,0-1.42,2.41,3.69,3.69,0,0,0,.6,2.22,4.09,4.09,0,0,0,1.79,1.32q1.19.5,3.78,1.34a33.34,33.34,0,0,1,4.13,1.57,6.1,6.1,0,0,1,2.36,1.94,5.41,5.41,0,0,1,.87,3.21,6.22,6.22,0,0,1-1.2,3.71,7.8,7.8,0,0,1-3.29,2.59,11.5,11.5,0,0,1-4.68.92A13.18,13.18,0,0,1,352.68,37.25Z" transform="translate(-1.5 -1.76)"/><path class="cls-2" d="M187.94,51a9.93,9.93,0,1,0,9.93,9.93A9.93,9.93,0,0,0,187.94,51Zm-.43,18.31a8.62,8.62,0,0,1-.94-.05,7.6,7.6,0,0,0,5.88-3.91,6.42,6.42,0,0,1-9.7-5.33,6,6,0,0,0,5.1,2.78c4.43,0,5.65-2.66,5.65-5a3.7,3.7,0,0,0-3.81-3.54,3.2,3.2,0,0,0-3.33,3.38,2.65,2.65,0,0,0,2.92,2.5,1.82,1.82,0,1,0,0-3.64,1.29,1.29,0,0,0-1.35,1.69,1.54,1.54,0,0,1,1.54-1,1.15,1.15,0,0,1,1.17,1.16,1.33,1.33,0,0,1-1.28,1.18,1.84,1.84,0,0,1-2-2,2.32,2.32,0,0,1,2.49-2.27,2.94,2.94,0,0,1,2.77,2.82c0,2-1.15,3.43-4.29,3.43a4,4,0,0,1-4-4A4.29,4.29,0,0,1,189,53.13c3.2,0,6.9,2.45,6.9,7.79A8.4,8.4,0,0,1,187.51,69.32Z" transform="translate(-1.5 -1.76)"/><path class="cls-2" d="M177.08,67.15a8.12,8.12,0,0,0-4.73,1.09c3.15-.21,4.53,1.12,6.17,2.35a4.84,4.84,0,0,0-2.39,2.87c3.73-1.68,4.77-.51,7.32-.71s3.28-1.28,3.28-1.28a11.23,11.23,0,0,1-2.46-.49C180.2,69.64,179.87,67.35,177.08,67.15Z" transform="translate(-1.5 -1.76)"/></svg>